<?xml version="1.0" standalone="no"?>
<!DOCTYPE svg PUBLIC "-//W3C//DTD SVG 20010904//EN"
 "http://www.w3.org/TR/2001/REC-SVG-20010904/DTD/svg10.dtd">
<svg version="1.0" xmlns="http://www.w3.org/2000/svg"
 width="1055.000000pt" height="1055.000000pt" viewBox="0 0 1055.000000 1055.000000"
 preserveAspectRatio="xMidYMid meet">
<metadata>
Created by potrace 1.14, written by Peter Selinger 2001-2017
</metadata>
<g transform="translate(0.000000,1055.000000) scale(0.100000,-0.100000)"
fill="#000000" stroke="none">
<path d="M4849 10505 c-48 -8 -115 -21 -150 -30 -74 -19 -300 -91 -344 -110
-16 -7 -111 -43 -210 -80 -99 -37 -184 -71 -190 -75 -5 -4 -19 -10 -30 -13
-11 -3 -51 -17 -90 -32 -116 -44 -264 -94 -375 -126 -482 -138 -807 -274
-1150 -479 -436 -260 -666 -427 -782 -567 -36 -43 -146 -161 -245 -263 -197
-203 -267 -279 -328 -355 -22 -27 -43 -52 -46 -55 -3 -3 -47 -58 -98 -124
-136 -175 -163 -232 -312 -671 -111 -329 -263 -746 -309 -850 -24 -53 -111
-334 -139 -445 -17 -69 -35 -168 -40 -220 -10 -107 -7 -1283 4 -1345 11 -66
25 -116 60 -210 53 -144 148 -544 211 -885 10 -53 66 -278 83 -335 80 -259
196 -467 425 -765 166 -216 249 -335 302 -435 55 -105 67 -123 154 -231 36
-45 97 -137 135 -204 96 -168 212 -300 402 -458 146 -122 202 -151 433 -227
242 -80 413 -154 535 -233 80 -51 186 -117 230 -142 229 -131 395 -227 511
-296 167 -100 345 -166 509 -188 157 -21 542 -25 1345 -12 862 14 740 5 1015
75 296 77 547 143 685 183 58 16 112 31 120 33 50 11 177 53 250 83 153 62
248 115 340 189 95 76 159 129 180 147 352 304 426 358 665 486 305 163 493
340 769 728 60 84 127 172 149 195 83 88 334 452 484 702 64 106 126 278 159
440 2 11 7 36 11 55 4 19 8 37 8 40 3 9 16 62 42 170 42 171 117 386 215 612
l91 213 3 105 c5 166 4 1526 -1 1615 -5 99 -13 192 -20 226 -15 76 -65 198
-213 519 -132 287 -462 961 -527 1075 -12 22 -46 84 -74 137 -72 137 -99 185
-138 246 -18 29 -33 55 -33 57 0 8 -71 107 -131 181 -81 100 -138 149 -375
324 -350 258 -411 310 -518 445 -72 90 -232 242 -361 341 -373 288 -370 286
-884 424 -231 62 -954 285 -1036 320 -11 5 -85 30 -164 56 l-144 47 -491 3
c-376 2 -511 -1 -577 -11z m771 -279 c228 -11 312 -30 715 -160 471 -152 660
-209 938 -281 275 -72 362 -107 511 -207 150 -100 209 -152 501 -437 257 -251
425 -395 645 -551 186 -132 326 -293 437 -500 22 -41 60 -111 84 -155 47 -89
418 -830 497 -995 27 -58 107 -221 176 -363 l125 -258 7 -517 c12 -952 11
-1162 -2 -1232 -22 -109 -48 -186 -146 -430 -53 -129 -103 -257 -111 -285 -17
-50 -72 -269 -80 -315 -3 -14 -8 -43 -12 -65 -18 -101 -68 -297 -93 -360 -40
-106 -165 -296 -506 -771 -222 -309 -345 -463 -461 -579 -112 -112 -210 -182
-395 -280 -223 -119 -296 -171 -629 -454 -290 -246 -314 -263 -486 -330 -131
-51 -194 -72 -405 -136 -74 -23 -459 -126 -488 -131 -15 -3 -47 -10 -72 -15
-67 -16 -69 -16 -155 -28 -128 -19 -134 -19 -265 -26 -257 -13 -480 -17 -1690
-29 l-305 -4 -135 71 c-268 139 -615 340 -859 496 -164 106 -320 177 -571 262
-63 22 -124 43 -135 48 -11 5 -56 23 -100 42 -204 84 -375 247 -522 494 -39
66 -109 172 -155 235 -47 63 -106 153 -133 200 -49 85 -142 226 -192 289 -230
292 -321 422 -396 569 -73 141 -153 354 -163 437 -5 34 -15 95 -48 275 -42
234 -130 600 -182 760 -50 157 -51 165 -61 425 -15 409 -8 1132 12 1164 2 4 7
22 10 39 17 99 196 616 282 816 47 110 111 279 117 308 18 98 137 452 191 566
80 168 186 295 589 706 136 138 236 253 236 270 1 30 119 130 260 222 386 250
756 455 990 549 125 50 429 153 605 205 130 38 295 95 455 157 63 25 144 56
180 70 36 13 83 32 105 40 107 41 401 138 453 148 50 11 187 34 217 37 44 5
482 0 615 -6z"/>
<path d="M5238 9916 c-1 -2 -37 -6 -78 -9 -95 -8 -265 -33 -350 -53 -133 -30
-314 -91 -730 -244 -107 -40 -337 -119 -510 -177 -562 -187 -629 -217 -1063
-477 -71 -43 -373 -245 -392 -262 -11 -11 -36 -31 -55 -46 -53 -40 -80 -67
-135 -133 -68 -82 -107 -125 -196 -220 -332 -348 -464 -509 -531 -645 -52
-107 -60 -126 -121 -315 -56 -173 -154 -448 -202 -565 -50 -122 -152 -405
-183 -505 -89 -288 -95 -349 -96 -1045 l-1 -465 47 -135 c40 -116 65 -197 74
-235 1 -5 15 -66 32 -135 16 -69 33 -138 36 -155 4 -16 9 -41 12 -55 3 -14 7
-36 10 -50 3 -13 12 -56 20 -95 9 -38 17 -79 20 -90 35 -178 131 -501 174
-592 52 -105 152 -257 271 -408 136 -173 209 -276 276 -390 33 -55 97 -153
144 -217 46 -64 93 -134 104 -155 94 -182 276 -378 460 -496 87 -55 137 -78
290 -129 136 -46 255 -97 400 -171 95 -48 155 -83 450 -264 72 -44 162 -97
200 -118 367 -202 353 -198 650 -211 362 -17 1651 -9 1684 10 3 2 30 7 60 10
30 4 84 13 120 21 36 8 77 17 91 19 54 11 241 56 355 86 66 18 130 34 142 36
12 2 35 9 50 15 16 6 36 12 47 15 32 6 330 104 348 114 10 6 23 10 29 10 19 0
123 56 181 97 69 49 221 168 328 258 198 166 345 270 525 370 260 145 391 254
536 450 241 324 369 499 394 535 16 25 57 83 90 130 188 265 282 448 320 630
2 8 11 47 20 85 9 39 19 81 22 95 27 144 82 315 203 625 136 349 158 503 115
800 -20 136 -23 323 -10 520 10 150 12 464 3 527 -7 47 -110 315 -176 458 -19
41 -44 98 -57 125 -12 28 -39 88 -61 135 -48 106 -368 746 -427 855 -23 44
-62 116 -86 160 -73 134 -187 297 -260 372 -38 38 -118 105 -177 149 -193 139
-385 302 -585 495 -418 404 -612 532 -917 605 -174 42 -380 102 -717 209 -288
91 -575 172 -675 189 -19 3 -44 8 -55 10 -11 2 -54 7 -95 10 -41 4 -93 9 -115
11 -22 3 -87 7 -145 10 -58 4 -110 8 -117 10 -6 2 -13 2 -15 1z m242 -130
c222 -18 475 -78 950 -226 413 -128 530 -163 700 -209 341 -91 481 -183 920
-607 210 -203 379 -346 560 -474 169 -119 289 -269 440 -550 65 -121 512
-1019 587 -1180 17 -36 62 -128 99 -205 l68 -140 1 -825 1 -825 -87 -206 c-97
-228 -163 -419 -203 -584 -15 -60 -44 -183 -65 -271 -39 -166 -60 -217 -147
-361 -94 -156 -292 -449 -340 -503 -27 -31 -65 -78 -86 -105 -352 -478 -390
-516 -638 -659 -227 -131 -277 -162 -371 -232 -57 -43 -145 -112 -195 -153
-118 -99 -154 -128 -182 -149 -13 -9 -40 -30 -60 -46 -58 -45 -173 -121 -219
-144 -89 -46 -578 -195 -983 -301 -146 -38 -165 -41 -345 -46 -244 -8 -331
-11 -605 -21 -124 -5 -405 -8 -625 -8 -334 0 -416 3 -495 18 -113 20 -99 17
-185 45 -101 34 -240 109 -575 311 -432 260 -514 301 -779 391 -259 88 -389
170 -538 339 -46 52 -110 140 -143 195 -33 55 -93 147 -134 205 -41 58 -96
141 -122 185 -76 129 -139 219 -273 395 -162 212 -169 221 -222 310 -84 140
-126 258 -199 555 -26 107 -57 248 -74 339 -33 175 -113 481 -152 584 -52 137
-54 166 -50 712 2 278 7 523 10 545 3 22 8 54 11 70 2 17 7 48 11 70 14 100
104 367 224 670 98 245 91 227 206 567 46 136 100 281 120 323 37 76 113 191
171 256 101 114 223 247 305 330 134 138 204 217 243 275 46 69 113 122 365
289 326 216 571 351 808 445 102 40 395 138 497 165 112 31 359 117 565 197
394 154 657 227 880 245 41 3 76 6 77 7 5 4 196 -2 273 -8z"/>
<path d="M3959 7975 c-82 -26 -157 -132 -214 -300 -16 -47 -98 -370 -108 -425
-3 -14 -14 -63 -26 -110 -11 -47 -22 -96 -25 -110 -16 -93 -148 -557 -214
-750 -159 -465 -412 -1118 -557 -1435 -7 -16 -30 -68 -50 -115 -57 -131 -69
-157 -192 -425 -236 -512 -322 -720 -338 -819 -3 -17 -10 -58 -16 -91 -19
-100 -15 -264 6 -308 34 -72 161 -159 231 -159 32 0 125 38 154 64 60 52 92
124 104 234 15 133 89 337 263 719 28 61 60 131 71 158 12 26 25 47 29 48 4 0
15 2 23 3 8 2 44 6 80 10 36 4 79 9 95 11 17 2 84 11 150 20 123 17 171 23
215 30 14 3 43 7 65 10 42 7 622 103 665 111 33 5 275 44 320 50 19 2 67 10
107 16 84 12 169 7 188 -13 7 -8 92 -219 188 -469 222 -580 247 -647 352 -979
56 -178 94 -237 180 -280 70 -35 115 -38 171 -11 95 46 158 126 170 214 8 56
20 64 65 41 19 -10 57 -17 93 -18 79 0 127 24 205 105 l60 61 1 371 c1 294 8
1262 10 1337 0 12 33 26 133 54 146 41 500 156 550 179 18 8 63 28 100 45 38
17 70 31 73 31 17 0 344 171 408 214 325 218 564 501 663 783 27 77 27 81 27
333 0 253 0 256 -28 335 -67 193 -183 362 -396 576 -222 223 -265 252 -643
441 l-222 112 -125 -1 c-146 0 -501 -12 -509 -17 -3 -2 -39 -7 -79 -10 -40 -4
-78 -9 -85 -11 -7 -2 -28 -6 -47 -9 -150 -23 -489 -122 -615 -180 -101 -47
-158 -122 -157 -209 1 -82 88 -211 162 -241 52 -21 62 -51 75 -241 3 -44 8
-98 10 -120 2 -22 7 -83 10 -135 4 -52 8 -113 10 -135 2 -22 6 -76 10 -120 3
-44 7 -102 10 -130 2 -27 7 -84 10 -125 4 -41 8 -95 10 -120 2 -25 7 -81 10
-125 3 -44 8 -100 10 -125 15 -144 28 -364 29 -490 l1 -115 -52 -17 c-47 -16
-228 -60 -298 -72 -16 -3 -76 -16 -133 -29 -85 -20 -105 -21 -121 -11 -51 36
-158 308 -442 1124 -132 378 -396 1171 -449 1350 -73 248 -98 306 -152 360
-18 18 -47 39 -66 47 -50 21 -159 25 -213 8z m3047 -634 c126 -31 236 -82 468
-214 134 -77 313 -249 392 -378 93 -153 116 -359 60 -536 -42 -131 -164 -286
-316 -403 -241 -184 -488 -300 -965 -451 -236 -75 -218 -77 -230 22 -3 30 -8
70 -10 89 -5 47 -17 157 -20 200 -5 60 -16 173 -21 220 -2 25 -6 72 -9 105 -3
33 -7 80 -10 105 -7 66 -14 153 -20 250 -3 47 -8 105 -10 130 -9 100 -20 317
-30 574 -4 97 -8 190 -9 207 -1 16 1 32 6 35 19 12 178 55 223 60 28 4 52 8
54 10 2 1 85 1 185 -1 140 -2 199 -8 262 -24z m-2896 -591 c0 -9 4 -20 8 -25
11 -12 44 -102 167 -455 152 -435 199 -565 322 -895 64 -170 124 -332 135
-360 10 -27 18 -55 18 -61 0 -6 -19 -17 -42 -23 -63 -17 -880 -170 -990 -186
-46 -7 -80 -12 -113 -19 -102 -20 -279 -27 -293 -11 -8 9 31 110 133 350 138
322 479 1302 591 1700 l17 59 23 -29 c13 -17 24 -37 24 -45z m1822 -2132 c17
-26 29 -68 34 -118 6 -61 5 -667 -2 -890 -4 -118 -7 -236 -8 -262 0 -26 -3
-44 -7 -40 -26 29 -421 1069 -457 1204 -10 36 -9 37 21 47 42 14 232 58 281
65 22 4 41 8 43 9 1 2 20 4 41 5 31 2 42 -2 54 -20z"/>
</g>
</svg>
