<svg viewBox="0 0 951 455" fill="none" xmlns="http://www.w3.org/2000/svg">
<path class="hero-h" d="M27.6081 10.6033C27.6081 130.77 27.6081 250.936 27.6081 371.102C27.6081 390.83 28.2568 410.741 27.3802 430.464C27.21 434.295 27.5775 441.58 22.5948 443.339C-0.542171 451.505 18.7407 338.38 20.2021 331.224C29.2606 286.869 41.1042 236.898 64.0682 197.233C77.0801 174.758 106.009 207.274 115.568 218.426C150.236 258.872 157.937 314.539 170.03 364.608C175.191 385.976 181.387 407.461 184.842 429.211C187.098 443.411 182.452 437.654 175.271 433.085" stroke="currentColor" stroke-width="20" stroke-linecap="round" pathLength="1"/>
<path class="hero-e" d="M298.016 357.867C322.025 335.438 343.321 309.367 350.199 276.288C352.91 263.249 353.922 246.954 347.465 234.701C338.036 216.81 313.544 234.793 303.371 241.537C261.882 269.038 208.655 323.476 252.327 373.591C280.325 405.72 325.553 419.353 366.834 421.217C388.444 422.192 414.377 417.852 434.285 408.228C471.55 390.213 431.859 405.698 453.883 388.63" stroke="currentColor" stroke-width="20" stroke-linecap="round" pathLength="1"/>
<path class="hero-r" d="M514.462 237.738C518.173 274.851 522.559 311.773 529.274 348.486C533.174 369.81 534.931 376.47 539.3 396.567C540.627 402.669 547.03 410.738 542.491 415.025C541.306 416.144 522.206 356.067 521.982 355.094C514.834 324.013 507.912 289.905 510.588 257.791C511.292 249.342 514.354 226.084 527.907 227.028C536.159 227.602 552.712 236.857 557.758 239.789C574.833 249.709 596.216 246.285 611.768 257.791C629.177 270.671 676.456 225.868 692.768 239.789" stroke="currentColor" stroke-width="20" stroke-linecap="round" pathLength="1"/>
<path class="hero-o" d="M820.315 251.641C799.91 252.259 772.685 274.108 759.039 291.18C740.937 313.826 737.829 345.35 751.394 373.516C771.45 415.161 808.803 424.688 844.62 413.905C899.694 397.324 986.386 309.911 909.776 248.524C857.857 206.921 842.535 252.577 782.37 251.641" stroke="currentColor" stroke-width="20" stroke-linecap="round" pathLength="1"/>
</svg>
