<svg width="1055" height="1049" viewBox="0 0 1055 1049" fill="none" xmlns="http://www.w3.org/2000/svg">
<path fill-rule="evenodd" clip-rule="evenodd" d="M592.576 1.11979L651.446 20.5289C683.903 31.3471 723.362 42.8016 738.954 46.6198C754.547 50.1198 773.321 56.4834 780.322 60.6198C787.323 64.7561 804.506 77.4834 818.507 88.6198C832.509 99.7561 847.147 114.074 850.965 120.12C854.784 125.847 867.512 138.256 879.604 147.165C891.378 156.074 909.198 168.802 918.426 175.802C930.518 184.392 941.338 196.165 952.475 213.665C961.703 227.665 985.887 273.483 1006.25 315.483C1026.62 357.483 1046.03 399.802 1049.21 409.347C1054.3 424.938 1054.94 436.711 1053.67 611.392L1039.98 643.211C1031.71 662.302 1023.44 689.029 1018.98 710.029C1015.16 729.438 1009.12 750.12 1006.25 756.165C1003.07 762.211 990.661 781.938 978.568 800.074C966.795 817.892 955.657 833.165 953.748 834.12C951.839 835.074 943.565 846.211 934.973 858.62C926.382 871.347 911.107 889.802 900.925 899.665C889.469 910.802 872.922 921.938 858.284 929.256C842.373 936.892 824.872 949.302 805.779 966.483C790.186 980.483 771.412 995.438 764.411 999.574C757.41 1003.71 743.091 1010.39 732.59 1013.89C722.089 1017.39 690.586 1026.3 611.669 1046.35L511.432 1047.94C425.833 1049.21 408.013 1048.57 388.92 1044.12C376.828 1041.26 363.145 1036.17 358.69 1033.3C354.235 1030.12 337.051 1019.94 320.504 1010.71C303.957 1001.48 283.273 989.074 274.363 983.029C265.453 976.983 244.451 967.756 226.631 962.029C197.674 953.12 192.582 950.256 171.262 931.483C156.624 918.438 144.85 904.756 140.395 895.211C136.259 886.938 128.622 875.483 123.53 869.756C118.439 864.347 111.756 854.165 109.211 847.483C106.347 841.12 93.9363 823.301 81.526 807.711C68.161 791.483 53.8414 769.529 46.8408 754.574C37.9308 735.165 32.5212 716.074 24.5658 675.029C18.838 645.438 10.8827 613.62 7.06413 605.029C0.699865 590.392 0.0634387 584.029 0.0634387 517.529C-0.254775 450.711 0.381652 444.029 7.70055 418.892C11.8373 403.938 20.4291 379.756 26.4751 364.802C32.5212 349.847 43.9768 318.347 51.614 294.802C62.4332 261.074 68.161 248.347 78.3438 235.938C85.3445 227.029 94.2545 215.892 98.3913 210.802C102.528 205.711 115.893 191.392 128.303 178.983C140.714 166.574 152.169 154.165 153.76 151.62C155.351 148.756 162.989 141.438 170.944 135.392C178.899 129.029 195.128 117.892 207.538 110.256C219.63 102.62 238.405 91.4834 248.906 85.438C259.407 79.7107 280.727 70.1652 296.638 64.1198C312.549 58.3925 334.505 51.0743 345.961 48.2107C357.417 45.3471 383.828 35.8016 404.83 27.2107C425.832 18.6198 453.835 8.75615 466.882 5.25615C487.248 -0.152941 498.067 -1.10748 592.576 1.11979ZM414.377 54.5743C395.284 62.5289 368.554 71.7561 355.507 75.2561C342.461 78.7561 318.913 86.7107 303.002 92.7561C287.092 98.8016 258.452 113.12 239.36 124.892C220.267 136.347 197.674 150.665 189.082 156.711C180.808 162.756 174.126 169.438 174.126 171.347C173.808 173.574 163.625 185.665 150.896 198.074C138.168 210.483 120.03 229.892 110.483 241.029C96.1638 257.574 91.0724 266.483 82.7988 291.302C77.071 308.165 72.2978 323.756 72.2978 325.665C72.2978 327.892 66.57 343.165 59.5693 359.074C52.8868 375.302 43.0222 402.347 37.9308 418.892C28.7026 448.802 28.3844 450.074 29.339 517.529C29.9755 574.802 30.9301 588.165 35.7033 598.665C38.5672 605.665 45.2497 631.438 50.3411 655.938C55.4325 680.438 59.5693 703.029 59.5693 705.892C59.5693 709.074 64.3425 722.756 69.7521 736.12C76.7528 752.665 88.2085 770.802 103.164 789.574C115.893 805.165 128.622 823.302 131.804 829.347C134.668 835.392 141.668 846.211 147.078 853.211C152.806 860.211 160.761 872.302 164.898 880.256C169.035 888.211 179.536 901.574 188.446 909.529C201.811 921.938 210.084 926.074 239.36 935.938C258.452 942.302 280.727 951.847 288.683 957.256C296.638 962.983 316.685 975.074 333.232 984.938C349.78 994.483 370.463 1005.94 379.373 1010.39L395.284 1018.67C602.759 1017.07 610.396 1016.44 641.899 1009.12C660.356 1004.67 689.631 996.711 707.133 991.301C724.635 985.892 744.046 978.256 750.092 974.756C756.138 970.938 774.594 955.665 791.459 941.029C811.613 923.211 829.115 910.908 843.964 904.12C857.011 898.074 872.922 887.256 882.15 878.347C891.06 869.756 906.652 850.983 917.153 836.347C927.654 821.711 944.52 798.165 954.703 783.847C964.885 769.529 975.705 752.665 978.887 746.62C982.387 740.574 987.16 721.801 990.342 705.256C993.206 688.711 998.934 666.438 1003.39 655.938C1007.84 645.438 1014.84 628.256 1018.98 617.756C1023.12 607.256 1026.62 592.302 1026.62 584.347C1026.62 576.392 1026.3 536.302 1025.98 495.256L1025.03 420.483C963.294 292.256 938.474 244.211 929.882 231.165C916.835 211.756 909.198 204.12 888.514 189.802C874.513 180.256 850.01 159.574 834.418 143.665C818.826 127.756 799.415 109.62 791.459 103.256C783.504 97.2107 771.094 88.938 763.457 85.1198C756.138 81.6198 739.909 76.2107 727.817 73.6652C715.725 71.1198 678.812 59.9834 645.718 49.4834C586.212 29.7561 586.212 29.7561 541.662 28.8016C504.113 27.5289 493.294 28.4834 473.246 33.8925C460.199 37.3925 433.788 46.938 414.377 54.5743ZM536.889 61.2561C542.935 61.5743 557.255 63.1652 568.71 64.1198C580.166 65.0743 611.987 73.6652 640.308 82.8925C668.311 92.1198 702.041 101.983 715.088 104.847C732.272 108.347 744.682 113.756 759.638 123.62C770.775 130.938 793.05 150.029 808.961 165.938C824.553 181.529 848.738 202.529 862.739 212.074C883.423 226.392 890.424 233.711 903.788 255.029C912.698 269.029 935.292 312.62 954.384 351.756C973.477 392.165 990.024 430.347 991.615 439.574C993.206 448.483 993.206 470.12 991.615 490.483C990.024 513.392 990.024 532.165 992.57 545.847C994.479 557.302 995.116 574.165 993.843 583.392C992.888 592.62 986.206 613.62 979.205 630.483C972.204 647.029 964.885 668.029 962.976 677.256C961.067 686.483 957.566 702.074 955.021 712.256C952.051 724.559 943.989 740.468 930.837 759.983C919.699 776.211 905.698 795.938 899.652 803.892C893.287 811.529 884.059 824.256 878.968 831.892C873.558 839.529 863.375 851.302 856.056 858.302C848.419 864.983 832.827 875.483 821.053 881.211C808.961 887.256 785.731 903.802 769.184 918.12C752.637 932.438 733.226 946.756 726.226 950.256C719.225 953.438 695.677 961.392 673.72 967.756C651.764 973.802 621.215 981.12 605.305 983.983C583.03 987.802 557.573 988.756 489.157 987.802C405.785 986.847 401.012 986.211 387.329 979.529C379.373 975.392 366.645 968.392 358.69 963.938C350.734 959.483 331.641 947.711 315.731 937.847C298.547 927.347 275.954 916.529 259.407 911.12C236.814 904.12 227.586 899.029 211.993 885.665C201.492 876.438 189.4 862.438 185.263 854.483C181.445 846.847 174.444 836.029 170.307 830.938C165.852 825.529 159.17 815.347 155.67 808.665C152.169 801.665 139.759 784.483 128.303 770.483C115.257 754.574 104.119 736.756 99.0277 724.347C94.5727 712.892 86.6174 682.029 81.2078 655.938C76.1164 629.529 68.7975 600.892 64.9789 592.302C61.4786 583.392 58.6146 572.574 58.9329 568.438C59.2511 563.983 59.5693 537.574 59.5693 509.574C59.5693 465.029 60.5239 455.165 67.2064 431.62C71.6614 416.665 79.9349 393.12 85.981 379.12C91.7088 364.802 101.573 338.074 107.619 318.983C116.848 289.074 120.984 281.438 135.94 263.302C145.487 251.529 161.397 234.347 170.944 224.483C180.49 214.938 190.991 202.847 194.173 198.392C197.037 193.62 213.584 180.256 230.768 169.12C247.633 157.983 272.454 143.029 285.501 136.029C298.547 129.347 324.323 119.165 342.779 113.438C361.235 107.711 396.239 95.6198 420.741 86.3925C445.243 76.847 473.883 67.6198 484.384 65.7107C494.885 63.8016 508.568 61.8925 514.614 61.2561C520.66 60.6198 530.843 60.6198 536.889 61.2561ZM474.837 80.347C464.336 82.8925 442.061 90.847 425.514 97.5289C408.967 104.529 383.192 113.438 368.236 117.574C353.28 121.711 331.323 129.029 318.913 133.802C306.821 138.574 284.546 149.392 269.59 158.302C254.634 167.211 233.632 180.892 222.813 188.529C211.675 196.165 202.765 203.802 202.765 205.392C202.765 207.302 193.219 218.438 181.445 230.529C169.353 242.302 153.124 260.12 144.85 270.302C132.44 284.938 127.667 294.483 118.439 323.12C112.393 342.529 103.801 366.392 99.3459 376.574C94.8909 386.756 86.6174 408.392 81.2078 424.938C71.9796 454.211 71.6614 457.711 71.0249 515.62C70.3885 568.12 71.0249 577.665 76.1164 588.165C79.2985 594.847 86.2992 621.892 91.7088 648.62C97.1184 675.347 104.756 706.529 109.211 717.665C114.302 731.029 124.485 747.574 137.85 763.801C149.305 778.12 161.397 795.302 165.216 801.983C168.716 808.983 175.717 819.802 180.49 825.847C185.263 832.211 192.264 843.029 195.764 849.711C199.583 856.711 210.084 869.12 219.312 877.392C232.359 888.529 242.224 893.62 263.226 900.301C278.5 904.756 300.775 915.256 314.776 923.847C328.459 932.12 352.007 946.438 367.281 955.347C389.238 968.074 400.057 972.211 417.559 975.074C432.833 977.301 466.882 977.62 524.16 975.711L608.487 972.847C683.585 952.802 712.861 943.256 721.452 938.801C730.362 934.665 749.773 920.029 765.366 906.665C780.64 893.301 802.597 877.711 814.689 871.665C826.463 865.938 841.101 856.392 847.783 850.665C854.147 844.938 867.194 829.029 877.059 815.347C886.923 801.347 895.833 789.574 897.424 788.938C898.697 788.302 907.289 775.892 916.517 761.574C926.063 747.256 935.928 731.029 938.474 725.62C941.338 720.529 946.111 703.347 948.975 687.438C951.839 671.529 960.112 645.756 967.431 628.574L980.478 598.347V432.892C925.109 317.074 901.879 272.847 893.287 259.483C881.195 241.029 872.922 232.438 856.056 221.302C844.283 213.665 821.053 193.62 804.188 176.756C787.323 160.211 765.684 141.438 756.138 135.074C745.318 127.438 730.681 121.074 716.679 117.892C704.587 115.029 670.857 104.847 641.899 95.6198C612.942 86.3925 578.257 77.1652 564.892 75.2561C551.208 73.3471 534.025 72.0743 526.706 72.3925C519.069 72.7107 508.886 73.3471 503.476 74.3016C498.385 74.938 485.338 77.8016 474.837 80.347ZM405.467 253.12C414.059 253.12 419.786 255.347 424.56 260.438C428.378 264.256 432.833 274.12 434.742 281.756C436.652 289.711 450.017 332.029 464.973 375.62C479.61 419.529 499.34 475.847 508.568 500.665C521.615 535.029 527.024 545.847 530.525 544.574C533.07 543.938 546.753 540.756 560.755 537.892C574.756 535.029 587.167 531.529 588.439 530.574C589.712 529.302 588.121 496.847 584.621 458.665C581.439 420.165 577.938 375.938 576.984 360.665C575.393 338.711 574.12 332.983 570.301 332.983C567.755 332.983 562.664 328.847 559.164 324.074C555.345 319.302 552.481 311.665 552.481 307.529C552.481 303.074 555.982 296.392 559.8 292.574C564.573 287.802 580.802 281.756 605.305 275.074C636.808 266.802 649.854 264.892 714.133 264.574L745.637 280.165C771.094 292.574 781.913 300.211 801.324 319.938C816.916 335.529 828.69 350.802 834.736 363.211C842.692 379.756 843.964 385.802 843.964 410.938C843.964 436.074 843.01 441.802 834.736 458.665C829.008 470.438 817.553 485.392 804.506 498.438C792.096 510.529 774.594 523.574 761.229 530.574C749.137 536.938 727.817 546.801 714.452 552.211C700.769 557.62 680.403 564.302 647.945 573.211L646.672 745.983L638.717 754.256C633.626 759.665 627.261 762.529 621.215 762.529C616.124 762.529 610.396 760.938 608.487 759.347C606.365 757.438 605.093 759.347 604.668 765.074C604.35 769.529 600.531 776.847 596.076 780.665C591.622 784.483 584.621 787.983 580.802 787.983C576.665 787.983 569.983 785.438 565.528 781.938C559.8 777.802 555.663 768.892 550.572 751.074C546.753 737.074 534.025 701.438 522.251 671.847C510.795 641.938 500.613 615.847 499.976 613.62C499.34 611.392 494.885 609.802 490.112 609.802C485.02 609.802 452.562 614.574 417.559 620.62C382.556 626.983 343.415 633.029 306.821 636.847L299.184 654.347C294.729 663.892 286.773 681.711 281.682 694.12C276.591 706.211 271.817 722.756 271.181 730.711C270.226 741.211 267.681 746.62 261.953 752.029C257.498 755.847 250.179 759.347 245.724 759.347C241.269 759.347 233.95 755.847 229.177 751.392C221.54 745.029 220.267 741.529 220.585 726.892C220.585 717.665 223.131 702.074 226.313 692.529C229.495 682.665 243.496 651.165 256.861 622.529C270.545 593.574 291.547 544.892 303.957 514.347C316.049 483.483 331.96 439.892 339.597 417.302C346.916 394.392 355.826 362.892 359.008 347.302C362.508 331.392 368.236 307.847 371.418 294.802C375.237 280.483 380.964 267.12 385.419 262.029C391.465 255.347 396.239 253.12 405.467 253.12ZM627.58 322.165C629.171 375.938 632.353 421.12 635.853 457.074C639.035 492.711 642.217 522.302 642.854 522.62C643.172 522.938 657.81 518.483 675.312 512.756C692.813 507.029 717.316 497.483 729.408 491.12C741.818 485.074 758.683 473.62 767.275 465.983C775.867 458.347 785.731 446.256 789.232 439.574C793.369 431.62 795.914 420.483 795.914 410.938C795.914 401.392 793.369 389.62 789.55 382.302C786.368 375.302 777.14 363.529 769.184 355.574C761.229 347.938 743.409 336.165 729.408 329.165C708.406 318.665 699.814 316.438 680.085 315.165C666.083 314.529 650.173 315.483 641.899 318.029L627.58 322.165ZM383.828 441.165C373.646 471.711 358.053 514.665 349.143 536.62C340.233 558.256 332.278 577.665 331.323 579.574C330.687 581.483 336.096 582.12 345.325 581.483C353.598 580.847 380.964 576.392 406.421 571.62C431.879 566.529 457.972 561.756 464.655 560.483C471.019 559.529 476.428 557.938 476.428 557.302C476.428 556.347 471.337 542.347 464.973 526.12C458.608 509.892 443.016 466.62 430.287 430.029C408.967 368.62 407.058 364.165 404.83 374.347C403.558 380.392 394.011 410.302 383.828 441.165ZM548.345 597.074C547.39 597.711 557.255 626.347 570.619 660.711C583.984 694.756 595.122 722.756 595.44 723.074C595.44 723.392 596.395 697.62 597.031 665.802C597.667 633.983 597.349 603.438 596.076 597.711C595.122 591.983 592.258 587.529 590.349 587.847C588.121 587.847 578.257 589.756 568.392 591.665C558.527 593.892 549.617 596.12 548.345 597.074Z" fill="white"/>
</svg>
