<svg viewBox="0 0 415 20" fill="none" xmlns="http://www.w3.org/2000/svg">
<path d="M409.5 12.9998C391.339 12.9998 345.763 12.6685 327.666 12.9022C298.311 13.2812 269.061 12.4385 239.755 12.3746C222.457 12.3369 204.737 12.4709 187.488 12.687C166.808 12.946 146.645 12.8476 125.958 12.6523C104.607 12.4506 83.3997 11.9998 61.9891 11.9998C47.103 11.9998 32.2045 12.1247 17.2893 12.1247C12.0322 12.0831 1.6166 9.99976 2.01088 1.99976 M403 18.0176C405.429 16.7621 408.171 15.7569 410.44 14.2883C410.764 14.0783 413.196 12.8439 412.745 12.4633C411.159 11.1255 409.429 10.222 407.483 9.33484C406.125 8.7157 404.592 7.93467 403.484 6.99978" stroke="#F9C838" stroke-width="3" stroke-linecap="round"/>
</svg>
