<svg viewBox="0 0 415 20" fill="none" xmlns="http://www.w3.org/2000/svg">
<path d="M4.30078 13C22.462 13 68.038 12.6687 86.1352 12.9024C115.489 13.2814 144.739 12.4387 174.046 12.3748C191.344 12.3371 209.064 12.4711 226.313 12.6872C246.993 12.9463 267.156 12.8478 287.843 12.6525C309.194 12.4509 330.401 12 351.812 12C366.698 12 381.596 12.1249 396.511 12.1249C401.769 12.0833 412.184 10 411.79 2 M11.8007 18.5413C9.37167 17.2858 6.63003 16.2805 4.36087 14.812C4.03645 14.602 1.60434 13.3676 2.05566 12.987C3.64211 11.6492 5.37175 10.7457 7.318 9.85852C8.67624 9.23938 10.2083 8.45836 11.3168 7.52347" stroke="#F9C838" stroke-width="3" stroke-linecap="round"/>
</svg>
