<svg viewBox="0 0 291 66" fill="none" xmlns="http://www.w3.org/2000/svg">
<path d="M8.02383 13.6672C0.44395 25.3712 2.37902 38.0863 12.8036 49.0472C14.2603 50.5789 15.6721 52.3273 18.028 53.5329C21.3953 55.2561 27.3298 55.9372 31.7559 56.4441C46.0041 58.076 59.8987 58.2481 74.3847 58.5235C125.786 59.5009 177.184 60.1871 228.588 60.1871C235.235 60.1871 242.617 60.3108 249.068 59.3256C254.005 58.5718 258.162 57.3404 262.824 56.3253C272.325 54.2563 279.402 51.5287 283.416 46.136C288.505 39.2985 286.82 31.6743 284.138 24.6585C282.927 21.4899 281.091 18.1685 277.636 15.4644C272.964 11.8082 261.263 10.6081 253.82 9.52317C241.273 7.69418 228.608 7.01188 215.61 6.98329C203.537 6.95674 191.638 6.24395 179.595 5.91386C167.738 5.58886 155.977 4.8646 144.08 4.6365C130.141 4.36922 116.241 4.84444 102.313 4.84444C80.3526 4.84444 58.1616 6.18805 36.5912 8.34977C30.2261 8.98766 21.6168 10.1592 16.4162 12.3898C9.76129 15.2442 7.931 20.3707 7.0234 24.6288C5.1578 33.3813 7.2415 43.575 15.4158 51.3049C20.4237 56.0407 33.1543 57.4724 42.2602 58.6424C60.2807 60.9577 80.1656 60.3407 98.5614 60.7367C105.752 60.8914 112.885 61.4293 120.07 61.6427C128.396 61.8899 136.756 61.6403 145.081 61.4644C161.291 61.122 177.451 60.4544 193.684 60.4544C205.66 60.4544 217.602 60.2825 229.56 60.1871C238.588 60.1151 248.072 60.0856 257.016 59.385C291.977 56.6466 292.748 34.1685 284.917 19.9055C283.711 17.7106 282.396 15.3237 279.637 13.5186C276.505 11.4704 271.538 10.3341 267.298 9.09243C257.567 6.24246 247.781 5.05708 236.841 4.36914C207.277 2.5101 177.925 2.92171 148.304 3.89384C124.763 4.66645 101.273 5.1118 77.6916 5.1118C60.8126 5.1118 43.5035 3.59052 27.5319 7.31006C12.8847 10.7212 5.78824 17.4283 2.52154 25.4308C-1.1386 34.3972 1.68387 47.0851 12.3034 54.5726C18.636 59.0376 25.4219 61.6954 35.6464 63.128C49.5995 65.0829 63.5623 64.9995 77.8584 64.9995C94.3268 64.9995 110.656 63.9458 127.073 63.3953C142.851 62.8663 158.733 62.7055 174.537 62.5784C201.453 62.3621 228.311 61.7912 255.238 61.7912C261.537 61.7912 269.282 62.4422 275.135 60.9297C281.403 59.3099 286.809 56.9531 288.529 53.1764C290.633 48.5579 290.073 43.8028 289.335 39.1105C288.158 31.6318 286.226 23.7815 280.359 16.9052C275.375 11.0635 265.842 6.94497 254.571 4.82959C226.587 -0.422414 197.995 1.20398 168.952 1.35396C147.861 1.46288 126.815 1.4614 105.731 1.84412C89.648 2.13606 73.8105 3.29178 57.8223 4.14635C48.617 4.63837 39.3125 4.97649 30.5332 6.65652C26.8315 7.36488 23.066 7.95837 19.7787 9.15184C13.9175 11.2798 12.4326 13.9781 10.0247 17.4102" stroke="#F9C838" stroke-linecap="round"/>
</svg>
