<svg width="242" height="66" viewBox="0 0 242 66" fill="none" xmlns="http://www.w3.org/2000/svg">
<path d="M6.83293 13.6672C0.538229 25.3712 2.14521 38.0863 10.8023 49.0472C12.012 50.5789 13.1844 52.3273 15.1409 53.5329C17.9373 55.2561 22.8656 55.9372 26.5412 56.4441C38.3737 58.076 49.9124 58.2481 61.9423 58.5235C104.628 59.5009 147.312 60.1871 190 60.1871C195.52 60.1871 201.651 60.3108 207.008 59.3256C211.108 58.5718 214.56 57.3404 218.432 56.3253C226.322 54.2563 232.199 51.5287 235.532 46.136C239.759 39.2985 238.359 31.6743 236.132 24.6585C235.126 21.4899 233.601 18.1685 230.732 15.4644C226.853 11.8082 217.135 10.6081 210.955 9.52317C200.535 7.69418 190.017 7.01188 179.223 6.98329C169.197 6.95674 159.315 6.24395 149.314 5.91386C139.467 5.58886 129.7 4.8646 119.821 4.6365C108.245 4.36922 96.7019 4.84444 85.1353 4.84444C66.8983 4.84444 48.4699 6.18805 30.5567 8.34977C25.2708 8.98766 18.1212 10.1592 13.8024 12.3898C8.27581 15.2442 6.75585 20.3707 6.00213 24.6288C4.45285 33.3813 6.18325 43.575 12.9716 51.3049C17.1304 56.0407 27.7025 57.4724 35.2646 58.6424C50.2296 60.9577 66.743 60.3407 82.0199 60.7367C87.9912 60.8914 93.915 61.4293 99.8819 61.6427C106.796 61.8899 113.738 61.6403 120.652 61.4644C134.113 61.122 147.533 60.4544 161.015 60.4544C170.96 60.4544 180.877 60.2825 190.808 60.1871C198.305 60.1151 206.181 60.0856 213.609 59.385C242.641 56.6466 243.282 34.1685 236.778 19.9055C235.778 17.7106 234.686 15.3237 232.394 13.5186C229.793 11.4704 225.668 10.3341 222.147 9.09243C214.066 6.24246 205.94 5.05708 196.854 4.36914C172.302 2.5101 147.927 2.92171 123.329 3.89384C103.779 4.66645 84.272 5.1118 64.6886 5.1118C50.6713 5.1118 36.297 3.59052 23.0334 7.31006C10.8697 10.7212 4.97639 17.4283 2.26356 25.4308C-0.776001 34.3972 1.56792 47.0851 10.3869 54.5726C15.6458 59.0376 21.2811 61.6954 29.7721 63.128C41.3595 65.0829 52.9548 64.9995 64.827 64.9995C78.5032 64.9995 92.0634 63.9458 105.697 63.3953C118.8 62.8663 131.989 62.7055 145.114 62.5784C167.467 62.3621 189.771 61.7912 212.132 61.7912C217.363 61.7912 223.795 62.4422 228.655 60.9297C233.86 59.3099 238.35 56.9531 239.779 53.1764C241.526 48.5579 241.061 43.8028 240.448 39.1105C239.47 31.6318 237.866 23.7815 232.994 16.9052C228.855 11.0635 220.938 6.94497 211.578 4.82959C188.339 -0.422414 164.595 1.20398 140.475 1.35396C122.961 1.46288 105.483 1.4614 87.9739 1.84412C74.6177 2.13606 61.4654 3.29178 48.1881 4.14635C40.5435 4.63837 32.8166 4.97649 25.5258 6.65652C22.4518 7.36488 19.3247 7.95837 16.5948 9.15184C11.7273 11.2798 10.4942 13.9781 8.49453 17.4102" stroke="#F9C838" stroke-linecap="round"/>
</svg>
