<svg width="32" height="29" viewBox="0 0 32 29" fill="none" xmlns="http://www.w3.org/2000/svg">
<path fill-rule="evenodd" clip-rule="evenodd" d="M11.13 0C9.42988 0 8.52897 0.667292 8.52897 1.23599C8.52897 2.12574 9.19809 2.24959 14.8911 2.49723C21.7441 2.79418 28.0822 3.33763 28.4419 3.68389C29.0093 4.22738 29.2662 6.05733 29.087 8.15899C28.9831 9.32049 28.8289 13.3507 28.6999 17.1332C28.4681 25.6867 29.3439 24.9953 18.5494 25.2418L16.3606 25.2911C16.3857 24.4507 16.4633 19.3083 16.4885 17.3064C17.8803 17.3064 19.0392 17.3305 19.8635 17.2812C22.0535 17.1573 21.2543 16.2435 20.0954 15.6244C18.9616 15.0064 17.6485 15.0809 16.2316 15.0809V13.7704C16.2316 9.86398 18.4466 7.46645 20.5338 9.12323C22.1825 10.4327 23.5995 9.76536 22.3367 8.2576C18.885 4.05428 12.9591 6.65013 12.6246 12.485L12.4956 14.9571L10.5637 15.2047C7.60073 15.575 8.45135 17.3064 11.5684 17.3064H12.5995C12.676 19.3576 12.8826 24.5252 12.934 25.4642C12.1348 25.4894 10.8217 25.3656 7.36895 25.8105C4.1491 26.2061 4.43224 26.8986 4.12282 18.0482C3.73689 7.19473 4.09769 4.32603 6.10724 2.15096C6.69983 1.50775 5.30803 -0.321076 3.29848 1.70607C0.439429 4.54956 -0.0241813 7.19469 0.000938159 17.0839C0.0271994 24.2534 0.207645 26.7255 4.09773 28.036C5.79786 28.6047 8.42512 28.7778 13.0631 28.8764C32.461 29.2961 32.3068 29.3958 31.8946 16.1438C31.7656 11.7191 31.7142 7.78753 31.7919 7.41716C32.3833 4.74681 30.6832 1.55705 26.8456 0.939043C22.9556 0.222419 17.6222 0 11.13 0Z" />
</svg>
