<svg width="30" height="30" viewBox="0 0 30 30" fill="none" xmlns="http://www.w3.org/2000/svg">
<path fill-rule="evenodd" clip-rule="evenodd" d="M14.3463 3.96977C14.5663 7.19616 15.6164 18.703 15.5667 19.7626C15.2983 25.8295 11.2445 29.8975 6.77436 27.6351C1.25414 24.8423 4.33234 15.4533 10.4143 16.5129C12.783 16.922 13.0514 16.0793 10.7312 15.5501C2.81749 13.7446 -3.62987 23.9518 2.32908 28.8869C4.60079 30.788 11.6347 30.1621 15.5183 27.7073C18.9134 25.565 19.6951 23.2292 18.8401 17.8604C18.4002 15.0688 18.4735 13.4555 17.9118 8.47135L18.7419 9.12176C22.5285 12.1547 28.3905 11.6978 29.7824 8.27909C30.3689 6.83491 29.7575 6.71477 28.0972 7.96663C25.6055 9.84442 22.8218 8.35138 19.5236 3.34394C16.8132 -0.748496 13.9797 -1.68691 14.3463 3.96977Z" />
</svg>
