<svg width="214" height="82" viewBox="0 0 214 82" fill="none" xmlns="http://www.w3.org/2000/svg">
<mask id="path-1-inside-1_585_2" fill="white">
<path class="hero-h" d="M8.29975 81.1002C8.29975 81.1002 7.96642 80.9669 7.29975 80.7002C6.63308 80.5002 5.89975 80.3002 5.09975 80.1002C4.36642 79.9002 3.79975 79.8002 3.39975 79.8002C2.33309 79.5335 1.56642 78.9335 1.09975 78.0002C0.633085 77.1335 0.533085 76.1669 0.799751 75.1002C1.06642 74.8335 1.26642 74.2669 1.39975 73.4002C1.53309 72.5335 1.59975 71.8335 1.59975 71.3002C1.86642 70.7669 2.03309 70.4002 2.09975 70.2002C2.16642 69.9335 2.33309 69.2669 2.59975 68.2002C2.79975 67.0669 3.13309 65.5002 3.59975 63.5002C4.13309 61.4335 4.69975 59.2335 5.29975 56.9002C5.96642 54.5669 6.59975 52.3335 7.19975 50.2002C7.79975 48.0669 8.33309 46.2669 8.79975 44.8002C9.33309 43.3335 9.69975 42.5002 9.89975 42.3002C9.89975 42.3002 9.89975 42.2002 9.89975 42.0002C9.89975 41.7335 9.89975 41.4669 9.89975 41.2002C9.89975 41.2002 9.93309 40.9002 9.99975 40.3002C10.1331 39.6335 10.4664 38.9002 10.9998 38.1002C11.2664 37.3669 11.4998 36.5669 11.6998 35.7002C11.8998 34.8335 11.9998 34.2669 11.9998 34.0002C12.2664 33.6669 12.6331 32.8669 13.0998 31.6002C13.6331 30.2669 14.1331 28.9669 14.5998 27.7002C14.9998 26.6335 15.4331 25.5002 15.8998 24.3002C16.4331 23.1002 16.8664 22.0669 17.1998 21.2002C17.5998 20.3335 17.7998 19.9002 17.7998 19.9002C17.7998 19.6335 17.7998 19.5002 17.7998 19.5002C17.7998 19.4335 17.7998 19.4002 17.7998 19.4002C18.0664 19.1335 18.6998 17.8002 19.6998 15.4002C20.7664 12.9335 22.1998 9.76686 23.9998 5.9002C24.2664 5.36686 24.6664 4.53353 25.1998 3.4002C25.7331 2.20019 25.9998 1.46686 25.9998 1.2002C26.9998 0.200197 27.9664 -0.133138 28.8998 0.200195C29.8998 0.466862 30.7664 1.03353 31.4998 1.9002C32.2998 2.76686 32.8664 3.56686 33.1998 4.3002L34.1998 5.9002L30.4998 13.1002C29.4331 14.9669 28.4998 16.6669 27.6998 18.2002C26.9664 19.7335 26.5998 20.6335 26.5998 20.9002C26.5998 20.9002 26.4331 21.3002 26.0998 22.1002C25.8331 22.9002 25.4998 23.9335 25.0998 25.2002C24.6998 26.4002 24.2998 27.6002 23.8998 28.8002C23.1664 30.8669 22.4664 32.6002 21.7998 34.0002C21.1331 35.3335 20.7998 36.1335 20.7998 36.4002C20.7998 36.2669 21.4664 36.1669 22.7998 36.1002C24.1998 36.0335 25.9331 36.0002 27.9998 36.0002C30.0664 36.0002 32.1664 36.0002 34.2998 36.0002C36.4998 35.9335 38.4664 35.9002 40.1998 35.9002C41.9331 35.8335 43.1331 35.7335 43.7998 35.6002L48.9998 35.1002L51.7998 26.2002C52.3331 24.3335 53.0331 22.0669 53.8998 19.4002C54.7664 16.7335 55.5331 14.4669 56.1998 12.6002C57.2664 9.53353 58.3998 7.4002 59.5998 6.20019C60.7998 4.93353 61.7998 4.3002 62.5998 4.3002C62.7998 4.3002 63.1664 4.5002 63.6998 4.9002C64.2998 5.23353 64.8998 5.63353 65.4998 6.1002C66.0998 6.56686 66.4664 7.0002 66.5998 7.4002C67.3998 8.13353 67.7664 8.96686 67.6998 9.9002C67.6998 10.8335 67.1664 12.0669 66.0998 13.6002C65.0331 15.4002 64.1331 17.3669 63.3998 19.5002C62.7331 21.5669 62.1331 23.2669 61.5998 24.6002C61.5998 25.4002 61.4998 26.0669 61.2998 26.6002C61.0998 27.0669 60.8664 27.4335 60.5998 27.7002C60.4664 27.8335 60.1998 28.3335 59.7998 29.2002C59.3998 30.0669 59.0331 30.9335 58.6998 31.8002C58.3664 32.6669 58.1998 33.2002 58.1998 33.4002C58.1998 33.8669 58.0998 34.4335 57.8998 35.1002C57.6998 35.7669 57.4664 36.2335 57.1998 36.5002C57.0664 36.9002 56.7664 37.9002 56.2998 39.5002C55.8331 41.1002 55.2998 43.0002 54.6998 45.2002C54.0998 47.3335 53.4664 49.4335 52.7998 51.5002C52.1331 53.5002 51.5331 55.1669 50.9998 56.5002C50.9998 56.9669 50.8331 57.5669 50.4998 58.3002C50.1664 58.9669 49.9998 59.5669 49.9998 60.1002C49.7331 60.9002 49.3998 61.9002 48.9998 63.1002C48.5998 64.3002 48.3998 65.0669 48.3998 65.4002C48.0664 66.9335 47.6998 68.7002 47.2998 70.7002C46.9664 72.7002 46.6664 74.4669 46.3998 76.0002C46.1998 77.5335 46.0998 78.4002 46.0998 78.6002C44.3664 78.8002 43.0664 78.5669 42.1998 77.9002C41.3331 77.2335 40.5331 76.7669 39.7998 76.5002C38.5331 75.7669 37.7664 74.8335 37.4998 73.7002C37.2998 72.6335 37.5664 71.3335 38.2998 69.8002C38.6331 69.2669 39.0331 67.9669 39.4998 65.9002C40.0331 63.7669 40.5664 61.6669 41.0998 59.6002C41.4998 58.6002 41.9331 57.3335 42.3998 55.8002C42.8664 54.2669 43.2998 52.7669 43.6998 51.3002C44.1664 49.7669 44.5664 48.4669 44.8998 47.4002C45.2331 46.3335 45.4664 45.7335 45.5998 45.6002C45.5998 45.3335 45.5998 45.1002 45.5998 44.9002C45.5998 44.7002 45.5998 44.6002 45.5998 44.6002C45.4664 44.4669 44.7998 44.3669 43.5998 44.3002C42.3998 44.1669 40.8664 44.1335 38.9998 44.2002C37.1998 44.2002 35.2331 44.2669 33.0998 44.4002C30.9664 44.4669 28.9331 44.6335 26.9998 44.9002C26.2664 44.9002 25.1998 44.9002 23.7998 44.9002C22.4664 44.9002 21.5331 44.9002 20.9998 44.9002C20.2664 44.9002 19.6331 44.9002 19.0998 44.9002C18.6331 44.9002 18.3998 44.9002 18.3998 44.9002C18.2664 45.1002 17.9998 45.7669 17.5998 46.9002C17.2664 48.0335 16.8331 49.4002 16.2998 51.0002C15.8331 52.6002 15.3331 54.2335 14.7998 55.9002C14.3331 57.5669 13.8998 59.1002 13.4998 60.5002C13.1664 61.8335 12.9331 62.8002 12.7998 63.4002C12.5331 64.6002 12.1664 66.1002 11.6998 67.9002C11.2998 69.7002 10.8331 71.5335 10.2998 73.4002C9.83309 75.3335 9.39975 77.0002 8.99975 78.4002C8.66642 79.8002 8.43309 80.7002 8.29975 81.1002Z"/>
<path class="hero-e" d="M74.3216 75.9002C72.255 75.7669 70.1883 75.0002 68.1216 73.6002C66.055 72.2669 64.155 71.0002 62.4216 69.8002C61.2883 68.6669 60.4216 67.4669 59.8216 66.2002C59.2216 64.8669 58.7216 63.1335 58.3216 61.0002C58.055 59.7335 58.055 58.0669 58.3216 56.0002C58.5883 53.9335 59.0216 51.8669 59.6216 49.8002C60.2216 47.6669 60.7883 46.0002 61.3216 44.8002C62.1216 42.9335 63.1216 40.9335 64.3216 38.8002C65.5883 36.6002 66.8216 34.5335 68.0216 32.6002C69.2883 30.6002 70.2883 29.0002 71.0216 27.8002C71.4883 27.3335 71.6883 27.1002 71.6216 27.1002C71.6216 27.0335 71.6216 27.0002 71.6216 27.0002C71.6216 26.6669 71.955 25.8335 72.6216 24.5002C73.355 23.1002 73.9883 21.8669 74.5216 20.8002C75.5216 19.7335 76.0883 18.8669 76.2216 18.2002C76.355 17.5335 76.255 17.0002 75.9216 16.6002C75.7883 16.3335 76.055 15.7669 76.7216 14.9002C77.455 14.0335 78.455 13.0669 79.7216 12.0002C80.9883 10.8669 82.3883 9.86686 83.9216 9.00019C85.5216 7.73353 87.055 7.06686 88.5216 7.0002C90.055 6.86686 90.955 7.16687 91.2216 7.9002C91.2216 8.1002 91.5883 8.16686 92.3216 8.10019C93.1216 7.96686 94.0216 7.8002 95.0216 7.60019C96.0883 7.33353 97.0216 7.13353 97.8216 7.0002C98.155 6.6002 98.9216 6.3002 100.122 6.1002C101.388 5.83353 102.855 5.6002 104.522 5.4002C105.388 5.46687 106.355 5.5002 107.422 5.5002C108.488 5.43353 109.422 5.36686 110.222 5.30019C111.088 5.23353 111.522 5.2002 111.522 5.2002C111.988 5.06686 112.655 5.36686 113.522 6.1002C114.455 6.76686 115.188 7.7002 115.722 8.9002C116.188 10.1002 115.788 11.1335 114.522 12.0002C113.255 12.8669 111.255 13.4669 108.522 13.8002C106.522 14.0669 104.955 14.3002 103.822 14.5002C102.755 14.6335 101.588 14.8335 100.322 15.1002C99.1216 15.3002 97.355 15.6669 95.0216 16.2002C93.355 16.5335 91.955 16.8002 90.8216 17.0002C89.6883 17.2002 88.6883 17.6002 87.8216 18.2002C87.0216 18.8002 86.1216 19.8669 85.1216 21.4002C84.655 21.7335 84.055 22.6002 83.3216 24.0002C82.5883 25.4002 81.855 26.8002 81.1216 28.2002C79.255 30.8002 77.855 32.7335 76.9216 34.0002C76.055 35.2002 75.755 35.9669 76.0216 36.3002C76.0216 36.3002 76.4883 36.4002 77.4216 36.6002C78.355 36.8002 78.955 36.9002 79.2216 36.9002C79.8883 36.5669 80.6883 36.3335 81.6216 36.2002C82.6216 36.0669 83.4216 35.9335 84.0216 35.8002C88.155 34.7335 91.1883 33.9669 93.1216 33.5002C95.1216 32.9669 96.5216 32.6002 97.3216 32.4002C98.1883 32.2002 98.955 32.0669 99.6216 32.0002C100.555 31.2669 101.488 31.3335 102.422 32.2002C103.422 33.0002 104.122 33.9669 104.522 35.1002C104.988 36.4335 104.988 37.4669 104.522 38.2002C104.055 38.9335 103.022 39.5335 101.422 40.0002C99.8883 40.4669 97.6883 41.0335 94.8216 41.7002C91.955 42.3002 88.355 43.2002 84.0216 44.4002C80.355 45.4669 77.3883 46.1002 75.1216 46.3002C72.855 46.5002 71.7883 45.9335 71.9216 44.6002C71.455 44.3335 70.9216 44.6002 70.3216 45.4002C69.7883 46.1335 69.2883 47.1669 68.8216 48.5002C68.355 49.8335 67.9216 51.2669 67.5216 52.8002C67.1883 54.3335 66.9883 55.7669 66.9216 57.1002C66.855 58.4335 66.955 59.4669 67.2216 60.2002C67.755 61.7335 68.5883 63.0669 69.7216 64.2002C70.9216 65.2669 72.655 66.1335 74.9216 66.8002C76.255 66.8669 77.555 66.9669 78.8216 67.1002C80.0883 67.2335 81.5216 66.9669 83.1216 66.3002C87.055 65.6335 89.7883 64.9335 91.3216 64.2002C92.855 63.4669 93.7883 62.9669 94.1216 62.7002C94.655 62.4335 94.9883 62.1669 95.1216 61.9002C95.3216 61.6335 95.5883 61.5002 95.9216 61.5002C95.7216 61.8335 95.7883 61.8335 96.1216 61.5002C96.455 61.1669 96.9883 60.7002 97.7216 60.1002C99.1216 58.9002 100.522 58.1669 101.922 57.9002C103.322 57.6335 104.488 57.6335 105.422 57.9002C106.355 58.1002 106.855 58.3669 106.922 58.7002C107.322 59.3669 107.122 60.4335 106.322 61.9002C105.522 63.3002 104.288 64.8002 102.622 66.4002C101.022 68.0002 99.1216 69.4335 96.9216 70.7002C93.3883 72.5669 89.555 73.8669 85.4216 74.6002C81.2883 75.4002 77.5883 75.8335 74.3216 75.9002Z"/>
<path class="hero-r" d="M117.34 75.3002C117.34 75.6335 117.173 75.6335 116.84 75.3002C116.506 75.0335 115.973 74.6335 115.24 74.1002C114.64 73.5002 113.94 72.7335 113.14 71.8002C112.34 70.8669 111.973 69.7669 112.04 68.5002C112.373 66.9669 112.973 64.7335 113.84 61.8002C114.706 58.8002 115.74 55.6669 116.94 52.4002C117.073 51.1335 117.273 50.0669 117.54 49.2002C117.873 48.3335 118.04 47.9002 118.04 47.9002C118.106 47.7669 118.24 47.5669 118.44 47.3002C118.64 46.9669 118.94 46.7335 119.34 46.6002C119.673 46.3335 119.806 45.8335 119.74 45.1002C119.673 44.3002 119.606 43.8002 119.54 43.6002C119.806 42.0002 120.406 39.8335 121.34 37.1002C122.273 34.3002 123.373 31.3669 124.64 28.3002C125.906 25.1669 127.106 22.2669 128.24 19.6002C128.573 19.0002 128.873 18.4335 129.14 17.9002C129.406 17.3002 129.54 17.0002 129.54 17.0002C129.34 16.7335 129.106 16.4669 128.84 16.2002C128.573 15.9335 128.273 15.5669 127.94 15.1002C127.406 14.3669 127.006 13.5669 126.74 12.7002C126.54 11.7669 126.773 10.9335 127.44 10.2002C127.64 9.86686 128.006 9.43353 128.54 8.9002C129.14 8.36686 129.773 7.86686 130.44 7.4002C131.973 6.53353 133.473 5.86686 134.94 5.4002C136.473 4.86686 137.84 4.76686 139.04 5.1002C141.173 5.16686 142.773 5.33353 143.84 5.6002C144.973 5.86686 145.873 6.23353 146.54 6.70019C146.94 6.96686 147.273 7.16686 147.54 7.3002C147.873 7.43353 148.306 7.5002 148.84 7.5002C149.973 7.63353 151.306 8.06687 152.84 8.8002C154.373 9.46686 155.74 10.1669 156.94 10.9002C158.14 11.6335 158.84 12.1335 159.04 12.4002C160.373 13.5335 161.54 15.0669 162.54 17.0002C163.54 18.9335 164.14 21.1669 164.34 23.7002C164.34 25.2335 164.273 26.6002 164.14 27.8002C164.006 28.9335 163.706 30.0669 163.24 31.2002C162.773 32.2669 162.006 33.5335 160.94 35.0002C158.94 38.1335 156.44 41.2335 153.44 44.3002C150.506 47.3669 146.773 50.1669 142.24 52.7002C142.106 52.9669 141.94 53.2669 141.74 53.6002C141.606 53.8669 141.54 54.0002 141.54 54.0002C141.54 54.5335 141.873 55.2335 142.54 56.1002C143.273 56.9669 144.173 57.9002 145.24 58.9002C146.306 59.8335 147.406 60.7669 148.54 61.7002C149.74 62.6335 150.806 63.4669 151.74 64.2002C152.74 64.8669 153.473 65.3335 153.94 65.6002C154.806 65.3335 155.506 65.2335 156.04 65.3002C156.573 65.3002 156.973 65.5335 157.24 66.0002C157.506 66.4669 157.673 67.2669 157.74 68.4002C157.673 69.2669 157.44 70.1002 157.04 70.9002C156.64 71.7002 156.34 72.1669 156.14 72.3002C155.606 72.7002 155.106 73.1669 154.64 73.7002C154.24 74.2335 153.74 74.5669 153.14 74.7002C152.54 74.8335 151.706 74.5335 150.64 73.8002C147.64 72.8669 144.94 71.1002 142.54 68.5002C140.206 65.9002 137.64 63.1002 134.84 60.1002C134.24 59.3669 133.74 58.8669 133.34 58.6002C132.94 58.2669 132.506 58.1002 132.04 58.1002C131.573 58.1002 130.873 58.2002 129.94 58.4002C129.406 58.4669 128.873 58.3335 128.34 58.0002C127.873 57.6669 127.373 57.2335 126.84 56.7002C126.64 56.3669 126.373 56.1669 126.04 56.1002C125.773 56.0335 125.54 56.2002 125.34 56.6002C125.206 57.0002 124.94 57.7002 124.54 58.7002C124.206 59.6335 123.84 60.5669 123.44 61.5002C123.106 62.4335 122.773 63.1669 122.44 63.7002C122.573 64.3002 122.406 65.6002 121.94 67.6002C121.473 69.5335 120.873 71.5669 120.14 73.7002C119.94 74.2335 119.64 74.7002 119.24 75.1002C118.84 75.5669 118.54 75.6669 118.34 75.4002C118.073 75.0669 117.84 74.9002 117.64 74.9002C117.506 74.9002 117.406 75.0335 117.34 75.3002ZM135.64 46.4002C137.573 45.8002 139.473 44.9002 141.34 43.7002C143.273 42.4335 145.073 40.9335 146.74 39.2002C148.406 37.4669 149.773 35.6335 150.84 33.7002C151.373 33.3002 151.873 32.6669 152.34 31.8002C152.806 30.8669 153.206 30.3002 153.54 30.1002C154.14 29.3669 154.54 28.8002 154.74 28.4002C155.006 28.0002 154.973 27.5002 154.64 26.9002C154.64 26.3669 154.706 25.8669 154.84 25.4002C155.04 24.8669 155.206 24.3669 155.34 23.9002C155.673 22.9669 155.673 22.1335 155.34 21.4002C155.073 20.6669 154.106 19.8335 152.44 18.9002C151.84 18.5002 151.206 18.1669 150.54 17.9002C149.94 17.5669 149.273 17.2669 148.54 17.0002C147.873 16.6669 147.106 16.3002 146.24 15.9002C145.173 15.9002 144.073 15.6669 142.94 15.2002C141.873 14.6669 141.04 14.4335 140.44 14.5002C140.106 14.5669 139.773 14.9669 139.44 15.7002C139.173 16.3669 138.873 17.3335 138.54 18.6002C138.273 19.6669 137.94 20.6335 137.54 21.5002C137.206 22.3002 136.773 22.8335 136.24 23.1002C136.173 23.3669 135.873 24.3002 135.34 25.9002C134.806 27.5002 134.173 29.4002 133.44 31.6002C132.706 33.7335 131.973 35.9002 131.24 38.1002C130.506 40.2335 129.906 42.0669 129.44 43.6002C128.973 45.1335 128.74 46.0335 128.74 46.3002C128.74 46.4335 128.94 46.6669 129.34 47.0002C129.806 47.3335 130.206 47.5335 130.54 47.6002C130.54 47.6002 130.606 47.5335 130.74 47.4002C130.873 47.2669 131.006 47.2335 131.14 47.3002L133.34 48.4002L135.64 46.4002Z"/>
<path class="hero-o" d="M175.068 72.9002C171.601 71.6335 168.901 69.1335 166.968 65.4002C165.034 61.6002 164.501 57.1669 165.368 52.1002C165.501 50.1669 165.801 48.4335 166.268 46.9002C166.801 45.3669 167.201 43.8335 167.468 42.3002C167.468 42.1669 167.534 41.9669 167.668 41.7002C167.801 41.3669 167.834 41.0669 167.768 40.8002C167.901 40.4002 168.201 39.6669 168.668 38.6002C169.134 37.4669 169.601 36.4002 170.068 35.4002C170.534 34.3335 170.834 33.7335 170.968 33.6002C171.301 33.4669 171.468 33.3002 171.468 33.1002C171.468 32.8335 171.468 32.7002 171.468 32.7002C171.468 32.1669 171.834 31.2002 172.568 29.8002C173.301 28.4002 174.234 26.8669 175.368 25.2002C176.568 23.4669 177.768 21.8002 178.968 20.2002C180.168 18.6002 181.234 17.2669 182.168 16.2002C183.101 15.1335 183.701 14.6002 183.968 14.6002C184.168 14.6002 184.334 14.4669 184.468 14.2002C184.601 13.9335 184.734 13.7669 184.868 13.7002C185.068 13.4335 185.668 13.0335 186.668 12.5002C187.734 11.9669 188.968 11.4002 190.368 10.8002C191.834 10.1335 193.268 9.53353 194.668 9.00019C196.068 8.46686 197.268 8.1002 198.268 7.9002C201.201 6.83353 203.834 6.83353 206.168 7.9002C208.501 8.96687 210.368 10.9669 211.768 13.9002C213.168 16.8335 213.901 20.5669 213.968 25.1002C213.701 26.5669 213.534 27.9669 213.468 29.3002C213.468 30.5669 213.368 31.5002 213.168 32.1002C213.101 33.5669 212.868 35.2335 212.468 37.1002C212.068 38.9669 211.668 40.6002 211.268 42.0002C210.868 43.3335 210.568 44.0335 210.368 44.1002C210.368 44.3669 210.301 44.6335 210.168 44.9002C210.034 45.1002 209.968 45.3002 209.968 45.5002C210.034 45.8335 209.801 46.6002 209.268 47.8002C208.734 49.0002 208.101 50.3335 207.368 51.8002C206.634 53.2669 205.968 54.5335 205.368 55.6002C204.768 56.6669 204.401 57.2002 204.268 57.2002C204.268 57.2002 204.201 57.2335 204.068 57.3002C203.934 57.3002 203.901 57.4335 203.968 57.7002C204.034 57.8335 203.801 58.1669 203.268 58.7002C202.734 59.2335 202.134 59.7669 201.468 60.3002C200.868 60.7669 200.401 61.0002 200.068 61.0002C200.068 61.0002 200.001 61.0335 199.868 61.1002C199.801 61.1669 199.868 61.3002 200.068 61.5002C200.134 61.6335 199.601 62.1669 198.468 63.1002C197.401 63.9669 196.034 65.0002 194.368 66.2002C192.701 67.3335 191.034 68.4002 189.368 69.4002C187.701 70.3335 186.368 70.9002 185.368 71.1002C185.168 71.3669 184.968 71.5335 184.768 71.6002C184.568 71.6002 184.301 71.6335 183.968 71.7002C183.501 72.1669 182.668 72.5335 181.468 72.8002C180.334 73.1335 179.168 73.3002 177.968 73.3002C176.768 73.3669 175.801 73.2335 175.068 72.9002ZM185.168 62.4002C186.501 61.9335 187.834 61.3002 189.168 60.5002C190.568 59.6335 191.768 58.7335 192.768 57.8002C193.834 56.8002 194.501 55.8669 194.768 55.0002C194.968 54.2669 195.168 53.7335 195.368 53.4002C195.634 53.0002 195.901 52.7002 196.168 52.5002C196.701 51.9669 197.368 50.9669 198.168 49.5002C199.034 48.0335 199.868 46.4335 200.668 44.7002C201.468 42.9669 202.134 41.3335 202.668 39.8002C203.268 38.2002 203.601 37.0335 203.668 36.3002C203.668 36.1669 203.768 35.6002 203.968 34.6002C204.168 33.6002 204.401 32.8669 204.668 32.4002C204.801 32.1335 204.834 31.9002 204.768 31.7002C204.768 31.4335 204.734 30.7335 204.668 29.6002C204.668 28.4669 204.701 26.4335 204.768 23.5002C204.701 21.1002 204.468 19.3335 204.068 18.2002C203.734 17.0002 203.301 16.2669 202.768 16.0002C202.634 15.8669 202.301 15.7335 201.768 15.6002C201.301 15.4669 200.801 15.4002 200.268 15.4002C199.734 15.3335 199.234 15.4002 198.768 15.6002C198.434 15.6669 197.968 15.8335 197.368 16.1002C196.834 16.3002 196.368 16.4002 195.968 16.4002C195.434 16.6669 195.068 17.0002 194.868 17.4002C194.668 17.7335 194.568 18.0002 194.568 18.2002C194.568 18.7335 194.334 19.2335 193.868 19.7002C193.401 20.1002 192.868 20.1335 192.268 19.8002C191.201 19.8669 190.468 20.0002 190.068 20.2002C189.734 20.4002 189.401 20.8335 189.068 21.5002C188.801 22.1002 188.234 23.1335 187.368 24.6002C185.501 26.0669 184.168 27.5002 183.368 28.9002C182.568 30.3002 182.101 31.3669 181.968 32.1002C180.568 34.6335 179.534 36.6002 178.868 38.0002C178.201 39.3335 177.734 40.5335 177.468 41.6002C177.201 42.6669 177.001 43.9669 176.868 45.5002C176.268 46.6335 175.834 47.8335 175.568 49.1002C175.301 50.3669 175.068 51.2002 174.868 51.6002C174.734 51.9335 174.668 52.5669 174.668 53.5002C174.668 54.3669 174.701 55.3669 174.768 56.5002C174.901 57.5669 175.034 58.5669 175.168 59.5002C175.368 60.3669 175.568 61.0002 175.768 61.4002C176.168 62.9335 177.134 63.8002 178.668 64.0002C180.201 64.2002 182.368 63.6669 185.168 62.4002Z"/>
</mask>
<path class="hero-h" d="M8.29975 81.1002C8.29975 81.1002 7.96642 80.9669 7.29975 80.7002C6.63308 80.5002 5.89975 80.3002 5.09975 80.1002C4.36642 79.9002 3.79975 79.8002 3.39975 79.8002C2.33309 79.5335 1.56642 78.9335 1.09975 78.0002C0.633085 77.1335 0.533085 76.1669 0.799751 75.1002C1.06642 74.8335 1.26642 74.2669 1.39975 73.4002C1.53309 72.5335 1.59975 71.8335 1.59975 71.3002C1.86642 70.7669 2.03309 70.4002 2.09975 70.2002C2.16642 69.9335 2.33309 69.2669 2.59975 68.2002C2.79975 67.0669 3.13309 65.5002 3.59975 63.5002C4.13309 61.4335 4.69975 59.2335 5.29975 56.9002C5.96642 54.5669 6.59975 52.3335 7.19975 50.2002C7.79975 48.0669 8.33309 46.2669 8.79975 44.8002C9.33309 43.3335 9.69975 42.5002 9.89975 42.3002C9.89975 42.3002 9.89975 42.2002 9.89975 42.0002C9.89975 41.7335 9.89975 41.4669 9.89975 41.2002C9.89975 41.2002 9.93309 40.9002 9.99975 40.3002C10.1331 39.6335 10.4664 38.9002 10.9998 38.1002C11.2664 37.3669 11.4998 36.5669 11.6998 35.7002C11.8998 34.8335 11.9998 34.2669 11.9998 34.0002C12.2664 33.6669 12.6331 32.8669 13.0998 31.6002C13.6331 30.2669 14.1331 28.9669 14.5998 27.7002C14.9998 26.6335 15.4331 25.5002 15.8998 24.3002C16.4331 23.1002 16.8664 22.0669 17.1998 21.2002C17.5998 20.3335 17.7998 19.9002 17.7998 19.9002C17.7998 19.6335 17.7998 19.5002 17.7998 19.5002C17.7998 19.4335 17.7998 19.4002 17.7998 19.4002C18.0664 19.1335 18.6998 17.8002 19.6998 15.4002C20.7664 12.9335 22.1998 9.76686 23.9998 5.9002C24.2664 5.36686 24.6664 4.53353 25.1998 3.4002C25.7331 2.20019 25.9998 1.46686 25.9998 1.2002C26.9998 0.200197 27.9664 -0.133138 28.8998 0.200195C29.8998 0.466862 30.7664 1.03353 31.4998 1.9002C32.2998 2.76686 32.8664 3.56686 33.1998 4.3002L34.1998 5.9002L30.4998 13.1002C29.4331 14.9669 28.4998 16.6669 27.6998 18.2002C26.9664 19.7335 26.5998 20.6335 26.5998 20.9002C26.5998 20.9002 26.4331 21.3002 26.0998 22.1002C25.8331 22.9002 25.4998 23.9335 25.0998 25.2002C24.6998 26.4002 24.2998 27.6002 23.8998 28.8002C23.1664 30.8669 22.4664 32.6002 21.7998 34.0002C21.1331 35.3335 20.7998 36.1335 20.7998 36.4002C20.7998 36.2669 21.4664 36.1669 22.7998 36.1002C24.1998 36.0335 25.9331 36.0002 27.9998 36.0002C30.0664 36.0002 32.1664 36.0002 34.2998 36.0002C36.4998 35.9335 38.4664 35.9002 40.1998 35.9002C41.9331 35.8335 43.1331 35.7335 43.7998 35.6002L48.9998 35.1002L51.7998 26.2002C52.3331 24.3335 53.0331 22.0669 53.8998 19.4002C54.7664 16.7335 55.5331 14.4669 56.1998 12.6002C57.2664 9.53353 58.3998 7.4002 59.5998 6.20019C60.7998 4.93353 61.7998 4.3002 62.5998 4.3002C62.7998 4.3002 63.1664 4.5002 63.6998 4.9002C64.2998 5.23353 64.8998 5.63353 65.4998 6.1002C66.0998 6.56686 66.4664 7.0002 66.5998 7.4002C67.3998 8.13353 67.7664 8.96686 67.6998 9.9002C67.6998 10.8335 67.1664 12.0669 66.0998 13.6002C65.0331 15.4002 64.1331 17.3669 63.3998 19.5002C62.7331 21.5669 62.1331 23.2669 61.5998 24.6002C61.5998 25.4002 61.4998 26.0669 61.2998 26.6002C61.0998 27.0669 60.8664 27.4335 60.5998 27.7002C60.4664 27.8335 60.1998 28.3335 59.7998 29.2002C59.3998 30.0669 59.0331 30.9335 58.6998 31.8002C58.3664 32.6669 58.1998 33.2002 58.1998 33.4002C58.1998 33.8669 58.0998 34.4335 57.8998 35.1002C57.6998 35.7669 57.4664 36.2335 57.1998 36.5002C57.0664 36.9002 56.7664 37.9002 56.2998 39.5002C55.8331 41.1002 55.2998 43.0002 54.6998 45.2002C54.0998 47.3335 53.4664 49.4335 52.7998 51.5002C52.1331 53.5002 51.5331 55.1669 50.9998 56.5002C50.9998 56.9669 50.8331 57.5669 50.4998 58.3002C50.1664 58.9669 49.9998 59.5669 49.9998 60.1002C49.7331 60.9002 49.3998 61.9002 48.9998 63.1002C48.5998 64.3002 48.3998 65.0669 48.3998 65.4002C48.0664 66.9335 47.6998 68.7002 47.2998 70.7002C46.9664 72.7002 46.6664 74.4669 46.3998 76.0002C46.1998 77.5335 46.0998 78.4002 46.0998 78.6002C44.3664 78.8002 43.0664 78.5669 42.1998 77.9002C41.3331 77.2335 40.5331 76.7669 39.7998 76.5002C38.5331 75.7669 37.7664 74.8335 37.4998 73.7002C37.2998 72.6335 37.5664 71.3335 38.2998 69.8002C38.6331 69.2669 39.0331 67.9669 39.4998 65.9002C40.0331 63.7669 40.5664 61.6669 41.0998 59.6002C41.4998 58.6002 41.9331 57.3335 42.3998 55.8002C42.8664 54.2669 43.2998 52.7669 43.6998 51.3002C44.1664 49.7669 44.5664 48.4669 44.8998 47.4002C45.2331 46.3335 45.4664 45.7335 45.5998 45.6002C45.5998 45.3335 45.5998 45.1002 45.5998 44.9002C45.5998 44.7002 45.5998 44.6002 45.5998 44.6002C45.4664 44.4669 44.7998 44.3669 43.5998 44.3002C42.3998 44.1669 40.8664 44.1335 38.9998 44.2002C37.1998 44.2002 35.2331 44.2669 33.0998 44.4002C30.9664 44.4669 28.9331 44.6335 26.9998 44.9002C26.2664 44.9002 25.1998 44.9002 23.7998 44.9002C22.4664 44.9002 21.5331 44.9002 20.9998 44.9002C20.2664 44.9002 19.6331 44.9002 19.0998 44.9002C18.6331 44.9002 18.3998 44.9002 18.3998 44.9002C18.2664 45.1002 17.9998 45.7669 17.5998 46.9002C17.2664 48.0335 16.8331 49.4002 16.2998 51.0002C15.8331 52.6002 15.3331 54.2335 14.7998 55.9002C14.3331 57.5669 13.8998 59.1002 13.4998 60.5002C13.1664 61.8335 12.9331 62.8002 12.7998 63.4002C12.5331 64.6002 12.1664 66.1002 11.6998 67.9002C11.2998 69.7002 10.8331 71.5335 10.2998 73.4002C9.83309 75.3335 9.39975 77.0002 8.99975 78.4002C8.66642 79.8002 8.43309 80.7002 8.29975 81.1002Z" stroke="#F9C838" stroke-width="14" stroke-linejoin="round" mask="url(#path-1-inside-1_585_2)" pathLength="1"/>
<path class="hero-e" d="M74.3216 75.9002C72.255 75.7669 70.1883 75.0002 68.1216 73.6002C66.055 72.2669 64.155 71.0002 62.4216 69.8002C61.2883 68.6669 60.4216 67.4669 59.8216 66.2002C59.2216 64.8669 58.7216 63.1335 58.3216 61.0002C58.055 59.7335 58.055 58.0669 58.3216 56.0002C58.5883 53.9335 59.0216 51.8669 59.6216 49.8002C60.2216 47.6669 60.7883 46.0002 61.3216 44.8002C62.1216 42.9335 63.1216 40.9335 64.3216 38.8002C65.5883 36.6002 66.8216 34.5335 68.0216 32.6002C69.2883 30.6002 70.2883 29.0002 71.0216 27.8002C71.4883 27.3335 71.6883 27.1002 71.6216 27.1002C71.6216 27.0335 71.6216 27.0002 71.6216 27.0002C71.6216 26.6669 71.955 25.8335 72.6216 24.5002C73.355 23.1002 73.9883 21.8669 74.5216 20.8002C75.5216 19.7335 76.0883 18.8669 76.2216 18.2002C76.355 17.5335 76.255 17.0002 75.9216 16.6002C75.7883 16.3335 76.055 15.7669 76.7216 14.9002C77.455 14.0335 78.455 13.0669 79.7216 12.0002C80.9883 10.8669 82.3883 9.86686 83.9216 9.00019C85.5216 7.73353 87.055 7.06686 88.5216 7.0002C90.055 6.86686 90.955 7.16687 91.2216 7.9002C91.2216 8.1002 91.5883 8.16686 92.3216 8.10019C93.1216 7.96686 94.0216 7.8002 95.0216 7.60019C96.0883 7.33353 97.0216 7.13353 97.8216 7.0002C98.155 6.6002 98.9216 6.3002 100.122 6.1002C101.388 5.83353 102.855 5.6002 104.522 5.4002C105.388 5.46687 106.355 5.5002 107.422 5.5002C108.488 5.43353 109.422 5.36686 110.222 5.30019C111.088 5.23353 111.522 5.2002 111.522 5.2002C111.988 5.06686 112.655 5.36686 113.522 6.1002C114.455 6.76686 115.188 7.7002 115.722 8.9002C116.188 10.1002 115.788 11.1335 114.522 12.0002C113.255 12.8669 111.255 13.4669 108.522 13.8002C106.522 14.0669 104.955 14.3002 103.822 14.5002C102.755 14.6335 101.588 14.8335 100.322 15.1002C99.1216 15.3002 97.355 15.6669 95.0216 16.2002C93.355 16.5335 91.955 16.8002 90.8216 17.0002C89.6883 17.2002 88.6883 17.6002 87.8216 18.2002C87.0216 18.8002 86.1216 19.8669 85.1216 21.4002C84.655 21.7335 84.055 22.6002 83.3216 24.0002C82.5883 25.4002 81.855 26.8002 81.1216 28.2002C79.255 30.8002 77.855 32.7335 76.9216 34.0002C76.055 35.2002 75.755 35.9669 76.0216 36.3002C76.0216 36.3002 76.4883 36.4002 77.4216 36.6002C78.355 36.8002 78.955 36.9002 79.2216 36.9002C79.8883 36.5669 80.6883 36.3335 81.6216 36.2002C82.6216 36.0669 83.4216 35.9335 84.0216 35.8002C88.155 34.7335 91.1883 33.9669 93.1216 33.5002C95.1216 32.9669 96.5216 32.6002 97.3216 32.4002C98.1883 32.2002 98.955 32.0669 99.6216 32.0002C100.555 31.2669 101.488 31.3335 102.422 32.2002C103.422 33.0002 104.122 33.9669 104.522 35.1002C104.988 36.4335 104.988 37.4669 104.522 38.2002C104.055 38.9335 103.022 39.5335 101.422 40.0002C99.8883 40.4669 97.6883 41.0335 94.8216 41.7002C91.955 42.3002 88.355 43.2002 84.0216 44.4002C80.355 45.4669 77.3883 46.1002 75.1216 46.3002C72.855 46.5002 71.7883 45.9335 71.9216 44.6002C71.455 44.3335 70.9216 44.6002 70.3216 45.4002C69.7883 46.1335 69.2883 47.1669 68.8216 48.5002C68.355 49.8335 67.9216 51.2669 67.5216 52.8002C67.1883 54.3335 66.9883 55.7669 66.9216 57.1002C66.855 58.4335 66.955 59.4669 67.2216 60.2002C67.755 61.7335 68.5883 63.0669 69.7216 64.2002C70.9216 65.2669 72.655 66.1335 74.9216 66.8002C76.255 66.8669 77.555 66.9669 78.8216 67.1002C80.0883 67.2335 81.5216 66.9669 83.1216 66.3002C87.055 65.6335 89.7883 64.9335 91.3216 64.2002C92.855 63.4669 93.7883 62.9669 94.1216 62.7002C94.655 62.4335 94.9883 62.1669 95.1216 61.9002C95.3216 61.6335 95.5883 61.5002 95.9216 61.5002C95.7216 61.8335 95.7883 61.8335 96.1216 61.5002C96.455 61.1669 96.9883 60.7002 97.7216 60.1002C99.1216 58.9002 100.522 58.1669 101.922 57.9002C103.322 57.6335 104.488 57.6335 105.422 57.9002C106.355 58.1002 106.855 58.3669 106.922 58.7002C107.322 59.3669 107.122 60.4335 106.322 61.9002C105.522 63.3002 104.288 64.8002 102.622 66.4002C101.022 68.0002 99.1216 69.4335 96.9216 70.7002C93.3883 72.5669 89.555 73.8669 85.4216 74.6002C81.2883 75.4002 77.5883 75.8335 74.3216 75.9002Z" stroke="#F9C838" stroke-width="18" stroke-linejoin="round" mask="url(#path-1-inside-1_585_2)" pathLength="1"/>
<path class="hero-r" d="M117.34 75.3002C117.34 75.6335 117.173 75.6335 116.84 75.3002C116.506 75.0335 115.973 74.6335 115.24 74.1002C114.64 73.5002 113.94 72.7335 113.14 71.8002C112.34 70.8669 111.973 69.7669 112.04 68.5002C112.373 66.9669 112.973 64.7335 113.84 61.8002C114.706 58.8002 115.74 55.6669 116.94 52.4002C117.073 51.1335 117.273 50.0669 117.54 49.2002C117.873 48.3335 118.04 47.9002 118.04 47.9002C118.106 47.7669 118.24 47.5669 118.44 47.3002C118.64 46.9669 118.94 46.7335 119.34 46.6002C119.673 46.3335 119.806 45.8335 119.74 45.1002C119.673 44.3002 119.606 43.8002 119.54 43.6002C119.806 42.0002 120.406 39.8335 121.34 37.1002C122.273 34.3002 123.373 31.3669 124.64 28.3002C125.906 25.1669 127.106 22.2669 128.24 19.6002C128.573 19.0002 128.873 18.4335 129.14 17.9002C129.406 17.3002 129.54 17.0002 129.54 17.0002C129.34 16.7335 129.106 16.4669 128.84 16.2002C128.573 15.9335 128.273 15.5669 127.94 15.1002C127.406 14.3669 127.006 13.5669 126.74 12.7002C126.54 11.7669 126.773 10.9335 127.44 10.2002C127.64 9.86686 128.006 9.43353 128.54 8.9002C129.14 8.36686 129.773 7.86686 130.44 7.4002C131.973 6.53353 133.473 5.86686 134.94 5.4002C136.473 4.86686 137.84 4.76686 139.04 5.1002C141.173 5.16686 142.773 5.33353 143.84 5.6002C144.973 5.86686 145.873 6.23353 146.54 6.70019C146.94 6.96686 147.273 7.16686 147.54 7.3002C147.873 7.43353 148.306 7.5002 148.84 7.5002C149.973 7.63353 151.306 8.06687 152.84 8.8002C154.373 9.46686 155.74 10.1669 156.94 10.9002C158.14 11.6335 158.84 12.1335 159.04 12.4002C160.373 13.5335 161.54 15.0669 162.54 17.0002C163.54 18.9335 164.14 21.1669 164.34 23.7002C164.34 25.2335 164.273 26.6002 164.14 27.8002C164.006 28.9335 163.706 30.0669 163.24 31.2002C162.773 32.2669 162.006 33.5335 160.94 35.0002C158.94 38.1335 156.44 41.2335 153.44 44.3002C150.506 47.3669 146.773 50.1669 142.24 52.7002C142.106 52.9669 141.94 53.2669 141.74 53.6002C141.606 53.8669 141.54 54.0002 141.54 54.0002C141.54 54.5335 141.873 55.2335 142.54 56.1002C143.273 56.9669 144.173 57.9002 145.24 58.9002C146.306 59.8335 147.406 60.7669 148.54 61.7002C149.74 62.6335 150.806 63.4669 151.74 64.2002C152.74 64.8669 153.473 65.3335 153.94 65.6002C154.806 65.3335 155.506 65.2335 156.04 65.3002C156.573 65.3002 156.973 65.5335 157.24 66.0002C157.506 66.4669 157.673 67.2669 157.74 68.4002C157.673 69.2669 157.44 70.1002 157.04 70.9002C156.64 71.7002 156.34 72.1669 156.14 72.3002C155.606 72.7002 155.106 73.1669 154.64 73.7002C154.24 74.2335 153.74 74.5669 153.14 74.7002C152.54 74.8335 151.706 74.5335 150.64 73.8002C147.64 72.8669 144.94 71.1002 142.54 68.5002C140.206 65.9002 137.64 63.1002 134.84 60.1002C134.24 59.3669 133.74 58.8669 133.34 58.6002C132.94 58.2669 132.506 58.1002 132.04 58.1002C131.573 58.1002 130.873 58.2002 129.94 58.4002C129.406 58.4669 128.873 58.3335 128.34 58.0002C127.873 57.6669 127.373 57.2335 126.84 56.7002C126.64 56.3669 126.373 56.1669 126.04 56.1002C125.773 56.0335 125.54 56.2002 125.34 56.6002C125.206 57.0002 124.94 57.7002 124.54 58.7002C124.206 59.6335 123.84 60.5669 123.44 61.5002C123.106 62.4335 122.773 63.1669 122.44 63.7002C122.573 64.3002 122.406 65.6002 121.94 67.6002C121.473 69.5335 120.873 71.5669 120.14 73.7002C119.94 74.2335 119.64 74.7002 119.24 75.1002C118.84 75.5669 118.54 75.6669 118.34 75.4002C118.073 75.0669 117.84 74.9002 117.64 74.9002C117.506 74.9002 117.406 75.0335 117.34 75.3002ZM135.64 46.4002C137.573 45.8002 139.473 44.9002 141.34 43.7002C143.273 42.4335 145.073 40.9335 146.74 39.2002C148.406 37.4669 149.773 35.6335 150.84 33.7002C151.373 33.3002 151.873 32.6669 152.34 31.8002C152.806 30.8669 153.206 30.3002 153.54 30.1002C154.14 29.3669 154.54 28.8002 154.74 28.4002C155.006 28.0002 154.973 27.5002 154.64 26.9002C154.64 26.3669 154.706 25.8669 154.84 25.4002C155.04 24.8669 155.206 24.3669 155.34 23.9002C155.673 22.9669 155.673 22.1335 155.34 21.4002C155.073 20.6669 154.106 19.8335 152.44 18.9002C151.84 18.5002 151.206 18.1669 150.54 17.9002C149.94 17.5669 149.273 17.2669 148.54 17.0002C147.873 16.6669 147.106 16.3002 146.24 15.9002C145.173 15.9002 144.073 15.6669 142.94 15.2002C141.873 14.6669 141.04 14.4335 140.44 14.5002C140.106 14.5669 139.773 14.9669 139.44 15.7002C139.173 16.3669 138.873 17.3335 138.54 18.6002C138.273 19.6669 137.94 20.6335 137.54 21.5002C137.206 22.3002 136.773 22.8335 136.24 23.1002C136.173 23.3669 135.873 24.3002 135.34 25.9002C134.806 27.5002 134.173 29.4002 133.44 31.6002C132.706 33.7335 131.973 35.9002 131.24 38.1002C130.506 40.2335 129.906 42.0669 129.44 43.6002C128.973 45.1335 128.74 46.0335 128.74 46.3002C128.74 46.4335 128.94 46.6669 129.34 47.0002C129.806 47.3335 130.206 47.5335 130.54 47.6002C130.54 47.6002 130.606 47.5335 130.74 47.4002C130.873 47.2669 131.006 47.2335 131.14 47.3002L133.34 48.4002L135.64 46.4002Z" stroke="#F9C838" stroke-width="14" stroke-linejoin="round" mask="url(#path-1-inside-1_585_2)" pathLength="1"/>
<path class="hero-o" d="M175.068 72.9002C171.601 71.6335 168.901 69.1335 166.968 65.4002C165.034 61.6002 164.501 57.1669 165.368 52.1002C165.501 50.1669 165.801 48.4335 166.268 46.9002C166.801 45.3669 167.201 43.8335 167.468 42.3002C167.468 42.1669 167.534 41.9669 167.668 41.7002C167.801 41.3669 167.834 41.0669 167.768 40.8002C167.901 40.4002 168.201 39.6669 168.668 38.6002C169.134 37.4669 169.601 36.4002 170.068 35.4002C170.534 34.3335 170.834 33.7335 170.968 33.6002C171.301 33.4669 171.468 33.3002 171.468 33.1002C171.468 32.8335 171.468 32.7002 171.468 32.7002C171.468 32.1669 171.834 31.2002 172.568 29.8002C173.301 28.4002 174.234 26.8669 175.368 25.2002C176.568 23.4669 177.768 21.8002 178.968 20.2002C180.168 18.6002 181.234 17.2669 182.168 16.2002C183.101 15.1335 183.701 14.6002 183.968 14.6002C184.168 14.6002 184.334 14.4669 184.468 14.2002C184.601 13.9335 184.734 13.7669 184.868 13.7002C185.068 13.4335 185.668 13.0335 186.668 12.5002C187.734 11.9669 188.968 11.4002 190.368 10.8002C191.834 10.1335 193.268 9.53353 194.668 9.00019C196.068 8.46686 197.268 8.1002 198.268 7.9002C201.201 6.83353 203.834 6.83353 206.168 7.9002C208.501 8.96687 210.368 10.9669 211.768 13.9002C213.168 16.8335 213.901 20.5669 213.968 25.1002C213.701 26.5669 213.534 27.9669 213.468 29.3002C213.468 30.5669 213.368 31.5002 213.168 32.1002C213.101 33.5669 212.868 35.2335 212.468 37.1002C212.068 38.9669 211.668 40.6002 211.268 42.0002C210.868 43.3335 210.568 44.0335 210.368 44.1002C210.368 44.3669 210.301 44.6335 210.168 44.9002C210.034 45.1002 209.968 45.3002 209.968 45.5002C210.034 45.8335 209.801 46.6002 209.268 47.8002C208.734 49.0002 208.101 50.3335 207.368 51.8002C206.634 53.2669 205.968 54.5335 205.368 55.6002C204.768 56.6669 204.401 57.2002 204.268 57.2002C204.268 57.2002 204.201 57.2335 204.068 57.3002C203.934 57.3002 203.901 57.4335 203.968 57.7002C204.034 57.8335 203.801 58.1669 203.268 58.7002C202.734 59.2335 202.134 59.7669 201.468 60.3002C200.868 60.7669 200.401 61.0002 200.068 61.0002C200.068 61.0002 200.001 61.0335 199.868 61.1002C199.801 61.1669 199.868 61.3002 200.068 61.5002C200.134 61.6335 199.601 62.1669 198.468 63.1002C197.401 63.9669 196.034 65.0002 194.368 66.2002C192.701 67.3335 191.034 68.4002 189.368 69.4002C187.701 70.3335 186.368 70.9002 185.368 71.1002C185.168 71.3669 184.968 71.5335 184.768 71.6002C184.568 71.6002 184.301 71.6335 183.968 71.7002C183.501 72.1669 182.668 72.5335 181.468 72.8002C180.334 73.1335 179.168 73.3002 177.968 73.3002C176.768 73.3669 175.801 73.2335 175.068 72.9002ZM185.168 62.4002C186.501 61.9335 187.834 61.3002 189.168 60.5002C190.568 59.6335 191.768 58.7335 192.768 57.8002C193.834 56.8002 194.501 55.8669 194.768 55.0002C194.968 54.2669 195.168 53.7335 195.368 53.4002C195.634 53.0002 195.901 52.7002 196.168 52.5002C196.701 51.9669 197.368 50.9669 198.168 49.5002C199.034 48.0335 199.868 46.4335 200.668 44.7002C201.468 42.9669 202.134 41.3335 202.668 39.8002C203.268 38.2002 203.601 37.0335 203.668 36.3002C203.668 36.1669 203.768 35.6002 203.968 34.6002C204.168 33.6002 204.401 32.8669 204.668 32.4002C204.801 32.1335 204.834 31.9002 204.768 31.7002C204.768 31.4335 204.734 30.7335 204.668 29.6002C204.668 28.4669 204.701 26.4335 204.768 23.5002C204.701 21.1002 204.468 19.3335 204.068 18.2002C203.734 17.0002 203.301 16.2669 202.768 16.0002C202.634 15.8669 202.301 15.7335 201.768 15.6002C201.301 15.4669 200.801 15.4002 200.268 15.4002C199.734 15.3335 199.234 15.4002 198.768 15.6002C198.434 15.6669 197.968 15.8335 197.368 16.1002C196.834 16.3002 196.368 16.4002 195.968 16.4002C195.434 16.6669 195.068 17.0002 194.868 17.4002C194.668 17.7335 194.568 18.0002 194.568 18.2002C194.568 18.7335 194.334 19.2335 193.868 19.7002C193.401 20.1002 192.868 20.1335 192.268 19.8002C191.201 19.8669 190.468 20.0002 190.068 20.2002C189.734 20.4002 189.401 20.8335 189.068 21.5002C188.801 22.1002 188.234 23.1335 187.368 24.6002C185.501 26.0669 184.168 27.5002 183.368 28.9002C182.568 30.3002 182.101 31.3669 181.968 32.1002C180.568 34.6335 179.534 36.6002 178.868 38.0002C178.201 39.3335 177.734 40.5335 177.468 41.6002C177.201 42.6669 177.001 43.9669 176.868 45.5002C176.268 46.6335 175.834 47.8335 175.568 49.1002C175.301 50.3669 175.068 51.2002 174.868 51.6002C174.734 51.9335 174.668 52.5669 174.668 53.5002C174.668 54.3669 174.701 55.3669 174.768 56.5002C174.901 57.5669 175.034 58.5669 175.168 59.5002C175.368 60.3669 175.568 61.0002 175.768 61.4002C176.168 62.9335 177.134 63.8002 178.668 64.0002C180.201 64.2002 182.368 63.6669 185.168 62.4002Z" stroke="#F9C838" stroke-width="14" stroke-linejoin="round" mask="url(#path-1-inside-1_585_2)" pathLength="1" />
</svg>
