<svg width="32" height="30" viewBox="0 0 32 30" fill="none" xmlns="http://www.w3.org/2000/svg">
<path fill-rule="evenodd" clip-rule="evenodd" d="M11.7465 0.134336C8.40276 0.409354 7.70198 0.712239 8.61898 1.48153C8.86127 1.70205 11.1811 1.78442 16.2234 1.72993C25.258 1.64755 26.6881 1.81233 27.794 3.02266C28.9533 4.28749 31.165 4.67278 31.165 3.60059C31.165 3.10505 29.2503 1.31682 28.3333 0.959422C26.4993 0.244629 16.4122 -0.250942 11.7465 0.134336ZM2.60378 2.2521C-2.46582 7.42294 0.500145 29.8692 6.08292 28.6044C7.13535 28.3573 7.10803 27.972 5.97607 27.5043C3.79043 26.569 3.22509 24.7529 3.79045 20.5997C4.11476 18.2336 4.16818 16.254 4.03398 10.9716C3.84512 3.73748 4.034 2.71973 5.57103 2.19758C6.4607 1.92256 5.97607 1.39915 4.7621 1.28889C3.76433 1.20651 3.52078 1.31678 2.60378 2.2521ZM21.6173 5.38758C20.0268 6.68029 20.9165 8.38612 23.209 8.38612C24.8541 8.38612 25.7711 7.58894 25.7711 6.15809C25.7711 4.75512 23.0474 4.23301 21.6173 5.38758ZM28.8178 5.96551C28.0363 8.27591 28.0897 9.59648 28.0897 22.6351C28.009 22.8822 28.8179 25.7705 25.3126 26.5411C23.9371 26.844 21.4831 26.9264 16.2507 26.9809C7.48576 27.119 7.05463 27.1736 8.02506 28.3294C9.5621 30.2279 25.5276 30.6398 28.926 28.8794C31.083 27.7515 32 23.213 32 13.5582C31.9466 7.7816 29.8964 2.77429 28.8178 5.96551ZM10.2641 10.9716C5.73257 15.2908 10.0479 22.8823 17.7343 21.6174C22.5616 20.8203 24.2341 10.5597 19.4602 10.5597C18.5159 10.5597 18.3817 10.9716 19.1359 11.5774C23.0201 14.6862 18.8128 21.1776 14.1197 19.6365C9.31978 18.0688 10.3983 10.3112 15.6568 10.3112C16.8434 10.3112 17.5715 9.76124 16.3849 9.26696C15.361 8.82592 13.0686 8.33168 10.2641 10.9716Z" />
</svg>
