<svg width="28" height="29" viewBox="0 0 28 29" fill="none" xmlns="http://www.w3.org/2000/svg">
<mask id="mask0_11_25" style="mask-type:luminance" maskUnits="userSpaceOnUse" x="1" y="0" width="27" height="29">
<path d="M24.9767 0.850017L1 4.21826L3.76931 28.9333L27.746 25.565L24.9767 0.850017Z" fill="white"/>
</mask>
<g mask="url(#mask0_11_25)">
<path d="M12.2666 2.76484C7.44612 4.53299 6.45488 12.5772 10.7073 15.3035C16.4622 18.9864 20.4772 14.3673 21.124 12.5827C21.21 12.3521 21.4337 12.013 21.6141 11.8464C22.8633 10.6572 22.5149 8.21638 21.3876 6.15473C19.2847 2.27921 14.7432 1.86478 12.2666 2.76484ZM9.54078 7.44654C10.9866 4.4586 13.0055 3.13593 15.8751 3.29765C18.4323 3.45133 20.7949 5.53193 21.0568 7.86966C21.0993 8.24869 21.0872 8.2504 20.5554 8.28647C19.888 8.32893 18.9877 8.85305 18.9073 9.24933C18.8461 9.59162 18.7481 9.6054 18.1256 9.3851C17.0352 8.98613 16.1376 7.75209 15.6831 6.03218C15.2733 4.48522 14.6445 3.98341 13.9876 4.67913C12.8085 5.93514 9.11978 9.46925 9.05163 9.41487C8.94512 9.35258 9.28648 7.95717 9.54078 7.44654ZM10.2053 9.59919C11.4005 8.59736 13.3527 6.67996 13.7045 6.15628C13.9623 5.78637 14.0972 5.76742 14.1368 6.12088C14.3824 8.20381 16.474 9.97614 18.7295 9.993L18.9787 9.9966C19.453 10.0066 19.9187 9.82595 20.2675 9.49455L20.4479 9.328C20.5388 9.25128 20.6587 9.20846 20.7731 9.23103C20.888 9.2535 20.9946 9.31579 21.0442 9.42406C21.3421 9.97235 21.2446 10.7687 20.8185 11.3035C18.3091 14.4668 17.0819 15.2933 14.6701 15.4396C11.9232 15.5943 9.33778 13.4171 9.03064 10.6754C9.03769 10.6231 9.55613 10.1393 10.2053 9.59919Z" fill="#0f645b"/>
<path d="M23.655 22.6847C22.3105 19.6759 20.529 18.1929 18.0188 17.957C17.378 17.8937 16.0895 17.5898 12.707 18.4314C9.55482 19.2276 7.495 23.1068 7.09136 24.602C6.19881 27.8206 9.76393 28.3805 19.0048 26.9506C19.7923 26.6622 25.5299 26.8799 23.655 22.6847ZM14.5501 18.8106C15.0543 18.6511 16.3114 18.3486 17.6445 18.8248C17.7082 18.8411 17.7521 18.8984 17.7712 18.9599C17.7909 19.0206 17.7732 19.0865 17.742 19.1418C16.9782 20.1909 15.9179 20.479 15.4683 20.5675C15.3337 20.5863 15.1921 20.542 15.1072 20.452C14.897 20.2395 14.5489 19.7917 14.3792 19.1656C14.3362 19.0064 14.4184 18.8548 14.5501 18.8106ZM15.1639 21.616C15.0553 22.0892 13.4721 24.4623 13.2131 24.3715C12.9546 24.28 13.2087 21.9015 13.5169 21.4381C13.8238 20.9623 15.2718 21.1422 15.1639 21.616ZM11.1745 20.0458C11.546 19.485 12.529 19.1694 13.0997 19.0514C13.1486 19.0446 13.1862 19.0519 13.2151 19.0862C13.2441 19.1205 13.2604 19.1565 13.254 19.2083C13.007 20.4398 11.373 21.0373 11.2477 21.0291C11.1103 21.0225 10.9052 20.6314 11.1745 20.0458ZM10.034 22.3829C9.83035 23.2263 9.79569 24.3515 9.92679 25.5176C10.0565 26.6714 10.0458 26.6855 9.18627 26.551C8.21344 26.4065 7.91912 25.8871 8.29063 24.9945L8.50337 24.4558L8.76149 25.0947C9.32724 26.4804 9.62514 25.5981 9.13658 24.0106C8.94079 23.3756 8.98344 23.2044 9.59347 22.3294C10.1081 21.6085 10.2213 21.6178 10.034 22.3829ZM10.8755 24.4559C10.6957 24.4043 10.8312 22.6279 11.0566 22.0875C11.2814 21.5465 12.3042 21.1493 12.4406 21.4739C12.5898 21.8094 11.0568 24.5198 10.8755 24.4559ZM22.7419 24.5056C22.7426 24.7348 22.115 25.2302 21.3592 25.5776C20.663 25.9041 13.9093 26.8085 13.1121 26.6779L12.7466 26.6271L13.76 25.1485C15.6911 22.3316 17.4432 20.4571 18.6182 19.9745C19.5318 19.5925 19.4914 19.6748 20.9955 21.0182C20.0888 21.5651 20.1908 21.5892 19.4921 21.343C18.4181 20.9582 18.1042 21.2565 18.6837 22.1049C18.9667 22.5241 19.0007 22.4936 17.4657 23.4211C15.8614 24.3965 14.9836 25.092 15.016 25.3803C15.0597 25.7688 15.3459 25.6654 16.5685 24.8325C19.3587 22.9149 19.9897 23.0053 19.5141 22.3076C19.3075 22.0179 19.4789 21.994 20.041 22.2466C20.7873 22.5886 20.9714 22.3461 21.6636 21.7657C22.1015 22.5704 22.7255 23.5911 22.7419 24.5056Z" fill="#0f645b"/>
</g>
</svg>
