<svg  viewBox="0 0 37 29" fill="none" xmlns="http://www.w3.org/2000/svg">
<path d="M14.8667 21.5843C15.0714 21.2435 20.197 18.7286 22.9522 17.6179C27.8717 15.6231 28.3726 15.2605 28.0765 13.9229C27.6902 12.178 23.7273 10.1385 16.9164 8.16678C12.9303 7.01119 12.0651 6.89711 11.1085 7.3737C10.6759 7.5774 10.5394 7.87218 10.4931 8.48457C10.4931 8.50635 9.83257 18.3429 9.58279 18.5236C8.19358 19.5216 14.4109 22.3094 14.8667 21.5843ZM12.9767 18.7734C12.817 18.6146 13.2264 9.57217 13.3861 9.57217C13.4775 9.57217 23.8406 12.6996 23.8406 13.1979C23.8637 13.6745 13.2728 19.0681 12.9767 18.7734Z" />
<path d="M36.0506 9.2245C34.338 2.81562 32.6253 1.69145 23.6748 1.16361C18.4523 0.854863 10.1303 0.74532 8.24484 0.986835C6.51012 1.20719 4.19102 2.26404 3.60665 3.10187C3.38981 3.40937 2.86915 4.09294 2.41465 4.6432C1.1136 6.22923 1.72126 7.30729 4.01829 7.55005C4.64676 7.61603 5.25319 7.24131 5.49208 6.64748C5.73097 6.09598 5.96863 5.45732 6.18547 4.86349C6.59709 3.69575 7.31254 3.23392 9.09014 2.96875C13.9231 2.26412 24.0656 3.2551 25.6692 3.29992C30.871 3.49786 31.7591 3.7617 32.085 5.23818C34.0133 14.2676 33.3628 18.4082 32.9083 19.9706C31.1086 26.204 27.8144 26.072 8.76428 26.0496C7.72418 26.0496 6.74901 25.6089 6.03356 24.8607C2.54451 21.1384 2.08877 15.1479 3.45474 10.7433C3.71446 9.88434 1.6992 8.71776 1.07073 9.35641C-0.099227 10.5453 -1.48725 22.3062 3.95336 26.2476C6.9879 28.4499 24.9758 29.4857 28.4 28.781C30.8489 28.2967 34.4678 24.9927 35.4221 22.4381C36.4843 19.4652 36.8518 12.2198 36.0506 9.2245Z" />
</svg>
